<?xml version="1.0" standalone="no"?>
<!DOCTYPE svg PUBLIC "-//W3C//DTD SVG 20010904//EN"
 "http://www.w3.org/TR/2001/REC-SVG-20010904/DTD/svg10.dtd">
<svg version="1.0" xmlns="http://www.w3.org/2000/svg"
 width="600.000000pt" height="600.000000pt" viewBox="0 0 600.000000 600.000000"
 preserveAspectRatio="xMidYMid meet">
<metadata>
Created by potrace 1.11, written by Peter Selinger 2001-2013
</metadata>
<g transform="translate(0.000000,600.000000) scale(0.100000,-0.100000)"
fill="#000000" stroke="none">
<path d="M100 3141 c0 -856 3 -1302 10 -1306 6 -3 10 -2 10 2 0 5 9 9 20 9 12
0 19 -5 16 -13 -3 -7 -1 -15 5 -18 5 -4 9 -3 8 2 -5 27 2 32 28 22 20 -7 28
-6 35 3 6 11 8 11 8 0 0 -7 4 -10 10 -7 6 3 7 -1 4 -9 -3 -9 -9 -15 -12 -14
-4 0 -14 0 -22 -1 -13 -1 -13 -2 0 -11 9 -5 19 -5 27 2 9 7 13 7 13 -1 0 -6
-7 -14 -15 -17 -8 -4 -15 -10 -15 -16 0 -5 5 -6 10 -3 6 4 19 1 28 -6 14 -11
15 -11 5 1 -20 22 -15 27 23 24 34 -2 35 -1 21 13 -13 13 -19 14 -30 4 -12 -9
-16 -8 -20 3 -10 26 13 29 44 7 33 -25 47 -27 29 -6 -7 9 -10 18 -7 22 4 3 9
-2 13 -11 3 -9 10 -13 15 -10 5 3 1 -8 -8 -24 -15 -26 -19 -28 -31 -15 -18 17
-35 3 -26 -21 5 -12 10 -14 19 -6 9 8 14 6 19 -5 4 -10 -1 -15 -14 -15 -10 0
-21 -3 -23 -7 -3 -5 7 -8 23 -8 24 0 27 3 24 25 -4 24 -4 24 11 6 8 -11 15
-25 15 -30 0 -6 5 -3 11 7 6 9 14 15 20 12 5 -4 12 1 15 9 7 18 25 12 20 -7
-1 -7 -1 -9 1 -4 3 4 10 4 16 0 7 -4 6 1 -2 10 -7 9 -9 17 -3 17 14 0 33 -25
25 -33 -3 -4 -1 -7 5 -7 15 0 15 13 1 27 -8 8 -2 10 20 9 32 -1 44 -16 14 -16
-15 0 -16 -2 -3 -10 10 -6 18 -4 25 8 12 20 47 26 43 7 -2 -8 2 -14 7 -14 6 0
9 7 7 15 -2 8 2 14 8 14 10 0 14 -13 11 -40 -2 -13 0 -13 8 -1 5 8 7 20 4 28
-4 9 0 11 11 7 9 -3 16 -1 16 6 0 6 5 8 10 5 6 -4 8 -11 5 -16 -3 -5 0 -6 8
-3 12 4 10 10 -10 30 -29 29 -33 30 -28 4 3 -14 0 -18 -8 -13 -20 12 -37 12
-37 0 0 -7 -5 -5 -10 3 -6 10 -10 11 -10 3 0 -7 -4 -13 -9 -13 -6 0 -8 9 -6
20 2 11 -3 24 -13 30 -9 5 -12 10 -5 10 6 0 15 -5 18 -10 4 -6 11 -8 16 -5 13
9 11 26 -2 23 -6 -2 -13 3 -14 10 -2 7 -1 8 2 2 2 -5 9 -8 14 -4 5 3 12 -2 16
-11 3 -10 0 -21 -7 -25 -8 -5 -9 -10 -1 -14 5 -4 17 7 26 25 9 17 19 28 22 25
3 -3 0 -12 -7 -21 -22 -26 -6 -25 25 1 17 14 22 23 13 20 -15 -4 -16 -2 -6 19
7 15 16 22 27 18 11 -3 8 2 -6 15 -26 23 -32 42 -7 21 15 -12 16 -11 10 9 -5
14 -3 29 6 39 11 14 10 15 -12 10 -23 -6 -23 -6 2 6 20 9 25 16 18 25 -6 6 -8
10 -4 8 3 -2 14 4 25 15 15 15 24 17 39 9 11 -6 20 -7 20 -2 0 6 -10 12 -22
15 -19 5 -20 8 -7 23 9 12 10 15 2 10 -7 -4 -13 -2 -13 3 0 6 6 11 13 11 7 0
5 5 -5 11 -10 5 -15 16 -12 24 4 8 1 15 -4 15 -6 0 -9 -9 -7 -20 3 -14 0 -18
-8 -13 -9 5 -9 3 0 -9 7 -8 10 -18 6 -21 -3 -4 -2 -7 4 -7 5 0 10 -7 10 -15 0
-8 -4 -15 -9 -15 -4 0 -8 6 -8 14 0 26 -20 28 -29 4 -6 -14 -10 -17 -10 -7 -1
8 4 20 10 26 8 8 5 14 -10 23 -12 6 -19 15 -16 20 3 4 0 11 -5 13 -6 3 -5 4 2
2 7 -1 12 -7 11 -13 -1 -5 5 -13 13 -16 11 -4 15 -2 11 8 -4 11 -1 13 10 9 11
-4 14 -2 9 5 -4 7 6 18 24 27 16 8 30 18 30 21 0 3 -4 3 -9 -1 -6 -3 -13 1
-18 9 -4 8 -17 14 -28 14 -44 -1 -51 1 -35 12 9 6 20 5 29 -3 12 -10 14 -9 9
5 -4 10 -1 19 9 22 11 4 14 2 9 -9 -8 -23 -2 -18 24 18 22 30 22 31 2 13 -23
-20 -31 -9 -9 13 7 8 7 11 1 8 -18 -10 -14 42 5 56 9 7 17 21 19 32 2 14 -3
11 -17 -11 -20 -34 -41 -51 -41 -36 0 5 -10 14 -23 19 -19 9 -26 8 -35 -6 -10
-13 -11 -13 -3 5 6 12 8 24 5 27 -3 3 3 10 13 15 17 10 25 12 41 12 4 0 0 5
-8 11 -12 8 -9 9 10 4 19 -5 22 -4 10 4 -13 9 -13 11 1 11 21 0 29 -9 22 -25
-2 -8 -12 -11 -21 -8 -15 4 -15 3 -2 -6 9 -7 11 -14 5 -18 -13 -10 -19 -36 -7
-29 5 3 15 19 22 35 7 19 17 28 26 24 7 -3 -2 12 -21 33 -19 20 -32 41 -28 47
3 5 13 -2 22 -17 17 -29 28 -33 28 -11 0 8 -4 12 -8 10 -8 -6 -24 25 -28 55 0
5 -11 9 -23 8 -13 0 -30 0 -38 1 -13 1 -13 2 0 11 9 6 20 5 29 -3 12 -10 14
-9 9 5 -4 10 -1 19 9 22 11 4 14 2 9 -9 -8 -23 -2 -18 24 18 22 30 22 31 2 13
-23 -20 -31 -9 -9 13 7 8 7 11 1 8 -18 -10 -14 42 5 56 9 7 17 21 19 32 2 14
-3 11 -17 -11 -20 -34 -41 -51 -41 -36 0 5 -10 14 -23 19 -19 9 -26 8 -35 -6
-10 -13 -11 -13 -3 5 6 12 8 24 5 27 -3 3 3 10 13 15 17 10 25 12 41 12 4 0 1
4 -6 8 -8 6 -2 9 17 9 19 0 27 -5 24 -13 -2 -7 -12 -10 -21 -7 -15 4 -15 3 -2
-6 9 -7 11 -14 5 -18 -13 -10 -19 -36 -7 -29 5 3 15 19 22 35 8 21 17 28 28
24 10 -3 5 4 -11 14 -15 11 -24 23 -20 27 4 4 -1 4 -12 0 -18 -7 -19 -6 -6 10
14 17 15 17 28 0 7 -10 13 -13 13 -8 0 6 -6 19 -14 30 -9 11 -11 23 -5 30 9
11 -10 64 -24 64 -5 0 -5 -5 -2 -11 4 -6 -2 -5 -14 3 -17 11 -18 14 -5 21 9 5
13 16 9 27 -5 17 11 38 21 27 10 -10 13 -47 3 -41 -6 3 -4 -7 5 -24 8 -16 23
-32 33 -36 15 -5 15 -3 -2 10 -20 15 -20 15 4 35 13 11 30 18 37 15 8 -3 11 0
7 9 -3 8 -9 12 -14 9 -5 -3 -9 -1 -9 3 0 5 9 14 21 21 19 12 20 12 14 -10 -7
-23 -7 -23 9 -3 14 18 15 18 16 3 0 -10 5 -18 10 -18 7 0 7 6 2 18 -11 19 -5
45 8 37 5 -3 7 -13 4 -23 -5 -16 -5 -16 9 0 10 13 17 14 25 6 9 -9 22 -1 52
32 22 24 40 39 40 34 0 -5 5 -2 11 6 9 13 10 13 6 0 -2 -8 -10 -14 -16 -13 -6
2 -11 -2 -11 -7 0 -11 23 -14 34 -3 10 11 37 12 30 2 -3 -5 -1 -9 4 -9 5 0 12
9 15 21 6 23 34 21 29 -3 -1 -8 5 -15 13 -15 11 0 14 6 9 16 -16 40 -15 44 5
14 20 -32 41 -43 41 -23 0 6 -4 10 -10 10 -5 0 -14 10 -21 21 -6 13 -7 19 -1
15 6 -3 13 0 16 6 3 7 3 2 0 -11 -4 -14 -2 -21 4 -17 5 3 13 -1 16 -10 8 -22
8 -22 -15 -35 -15 -8 -19 -8 -15 0 10 15 -7 14 -23 -1 -8 -8 -11 -8 -8 -2 7
13 -42 12 -63 -1 -8 -5 -11 -4 -7 2 3 5 0 10 -8 10 -8 0 -14 -3 -13 -6 2 -18
-3 -24 -11 -12 -5 7 -14 10 -20 7 -16 -10 -13 -29 4 -23 8 4 17 2 20 -3 3 -5
-3 -11 -12 -13 -10 -3 -2 -4 18 -3 20 2 41 6 47 10 7 4 12 1 12 -6 1 -7 6 -4
13 7 13 21 47 33 47 15 0 -5 -6 -10 -14 -10 -20 0 -29 -17 -15 -26 8 -4 9 -3
5 4 -4 7 -1 12 8 12 8 0 19 7 24 17 6 10 16 14 27 9 14 -5 15 -9 5 -21 -8 -9
-8 -15 -2 -15 6 0 13 6 15 13 4 9 8 8 17 -3 10 -13 11 -13 6 2 -3 10 -1 20 4
23 6 4 10 1 10 -5 0 -6 5 -8 10 -5 6 3 13 -1 16 -10 5 -12 9 -13 20 -4 11 9
14 8 14 -1 0 -8 3 -10 6 -7 4 4 1 13 -6 22 -8 9 -8 15 -2 15 6 0 14 -4 17 -10
3 -5 12 -10 18 -10 7 0 6 4 -3 11 -12 8 -11 9 5 7 13 -3 19 -10 17 -23 -2 -17
-1 -18 8 -5 9 11 13 12 17 3 2 -7 9 -13 15 -13 7 0 6 5 -1 14 -8 10 -9 16 -1
21 5 3 10 1 10 -6 0 -7 3 -9 7 -6 3 4 12 2 18 -3 15 -13 47 -2 42 14 -3 6 -10
10 -17 8 -10 -2 -10 1 -4 10 7 9 4 19 -12 34 -13 12 -25 19 -29 16 -3 -4 -3 2
1 13 5 11 9 14 12 7 2 -7 8 -10 13 -7 5 4 6 -2 3 -12 -5 -16 -3 -15 11 2 12
14 16 16 15 5 -4 -29 0 -36 23 -37 21 -2 21 -1 3 13 -11 8 -15 14 -9 14 6 0
16 -7 23 -15 11 -13 15 -13 21 -3 13 19 11 28 -5 22 -7 -3 -16 2 -20 12 -5 13
-3 14 6 6 7 -6 18 -12 23 -14 10 -3 11 -7 14 -36 0 -7 5 -11 11 -7 5 3 8 11 6
18 -1 7 -1 9 1 4 3 -4 10 -4 15 -1 6 4 8 2 4 -4 -3 -6 -2 -13 3 -16 9 -6 27
31 23 47 -1 4 3 7 9 7 6 0 8 -9 4 -22 -6 -18 -5 -21 5 -11 10 9 16 8 27 -3 15
-15 8 -39 -8 -28 -5 3 -7 9 -4 14 3 5 -4 8 -15 7 -22 -1 -27 -13 -8 -19 7 -3
5 -7 -6 -11 -11 -5 -15 -3 -10 5 5 7 3 8 -7 2 -19 -12 -40 -14 -34 -4 3 5 -4
7 -15 5 -11 -2 -18 0 -16 4 6 9 -51 7 -60 -2 -4 -4 0 -7 10 -7 9 0 14 -5 11
-10 -8 -13 11 -37 39 -51 13 -7 10 -1 -8 13 -17 15 -26 30 -22 36 10 17 26 15
20 -2 -3 -8 3 -19 14 -25 15 -8 23 -6 37 9 10 11 21 18 23 15 3 -3 -5 -17 -19
-32 l-24 -26 27 19 c15 10 28 25 28 32 0 6 5 12 10 12 13 0 13 -6 -1 -33 -10
-21 -10 -21 6 -2 8 11 13 25 11 32 -7 18 9 16 24 -2 10 -12 10 -15 0 -15 -19
0 -6 -10 20 -15 17 -3 20 -2 10 10 -7 8 -7 15 -1 19 5 3 11 0 14 -6 2 -7 8
-10 12 -5 11 9 -26 37 -40 30 -5 -3 -5 0 2 7 6 7 10 18 9 24 -2 6 -1 8 1 4 3
-5 9 -8 14 -8 6 0 7 5 4 10 -7 12 8 14 19 3 4 -4 20 -8 35 -9 21 -1 33 6 45
28 10 15 21 26 26 23 4 -3 10 2 14 10 3 8 10 15 16 15 7 0 5 -7 -4 -15 -8 -9
-18 -15 -22 -15 -8 2 -24 -21 -24 -34 0 -5 8 -2 17 5 14 12 16 12 9 0 -6 -9
-5 -12 4 -9 7 2 14 12 16 22 1 10 6 21 9 24 4 4 5 -2 3 -12 -1 -10 3 -21 11
-24 8 -3 11 0 7 7 -4 6 -2 11 5 11 8 0 8 5 -2 18 -13 16 -12 16 6 1 22 -18 58
-21 52 -5 -2 6 -13 10 -23 8 -14 -2 -12 2 9 16 15 10 24 22 20 27 -5 4 -2 5 6
0 12 -7 12 -10 -1 -19 -13 -10 -14 -15 -3 -30 7 -9 16 -17 19 -17 19 2 26 0
26 -10 0 -8 -6 -7 -17 2 -10 7 -7 1 6 -14 20 -22 27 -25 40 -14 25 19 30 29
23 46 -5 14 -4 14 13 1 11 -9 16 -10 11 -2 -4 6 -3 12 1 12 5 0 16 -6 24 -12
12 -11 12 -11 1 2 -17 20 -15 35 3 20 13 -10 18 -11 28 -1 9 10 8 11 -8 5 -18
-7 -18 -6 -6 9 15 18 31 14 31 -9 0 -8 5 -14 11 -14 7 0 5 10 -5 25 -25 37
-18 44 10 10 15 -16 23 -24 20 -18 -12 23 -15 52 -5 58 5 4 10 1 10 -4 3 -26
4 -30 10 -36 4 -3 6 5 5 17 -1 14 4 22 12 20 7 -1 18 9 24 23 8 17 17 24 27
20 12 -4 12 -2 -2 9 -16 13 -16 14 5 21 13 4 27 7 31 6 5 -1 6 3 3 8 -4 5 2
14 11 20 10 6 13 11 6 11 -6 0 -18 -7 -27 -15 -15 -16 -31 -21 -22 -7 7 12
-12 38 -21 29 -4 -5 -1 -12 7 -17 13 -9 13 -10 0 -10 -13 0 -13 -2 0 -11 13
-9 12 -10 -2 -5 -11 3 -17 1 -15 -7 1 -7 -4 -11 -12 -9 -18 4 -42 -18 -34 -31
4 -6 1 -7 -7 -2 -9 6 -11 4 -5 -5 6 -9 4 -11 -5 -5 -9 6 -11 4 -5 -5 5 -8 4
-11 -3 -6 -6 3 -20 -6 -33 -21 -12 -16 -19 -20 -16 -10 4 9 3 17 -2 17 -16 0
-20 -14 -8 -28 8 -11 8 -14 0 -9 -6 4 -14 3 -18 -3 -4 -6 -11 -7 -17 -4 -7 5
-8 2 -3 -6 6 -9 4 -11 -5 -5 -9 5 -11 4 -6 -4 9 -14 -15 -11 -27 4 -5 6 -7 3
-3 -7 4 -13 1 -16 -12 -12 -13 5 -14 4 -3 -4 9 -7 10 -12 2 -16 -6 -4 -11 -3
-11 3 0 5 -9 13 -20 16 -11 3 -20 11 -20 18 0 8 3 8 12 -1 7 -7 16 -12 22 -12
6 0 5 5 -1 11 -17 17 26 48 60 45 30 -4 53 16 41 35 -5 8 -3 9 7 3 22 -13 41
-14 36 -1 -2 7 -10 12 -17 12 -17 0 -24 21 -11 30 7 4 8 0 4 -11 -4 -11 -3
-15 5 -10 6 3 13 2 17 -4 3 -5 11 -10 17 -10 7 0 5 7 -4 18 -8 9 -18 24 -22
32 -4 8 2 3 14 -13 20 -25 40 -28 40 -6 0 6 -4 7 -10 4 -5 -3 -10 -1 -10 5 0
7 7 10 15 6 22 -8 45 4 38 21 -4 11 -8 12 -13 3 -6 -10 -13 -9 -31 4 -13 9
-19 16 -13 16 5 0 15 -5 20 -10 7 -7 18 0 34 22 20 28 21 31 4 24 -15 -6 -17
-5 -7 5 9 9 16 10 23 3 8 -8 6 -15 -5 -24 -28 -23 -16 -31 14 -9 28 21 29 23
12 38 -9 9 -11 12 -4 7 19 -13 29 2 12 17 -8 6 -21 21 -29 32 -7 11 3 3 23
-17 40 -42 44 -44 44 -23 0 8 -8 17 -18 20 -12 4 -16 12 -12 22 4 10 2 14 -5
9 -6 -3 -13 -3 -16 2 -3 5 2 9 11 9 9 0 18 -9 21 -19 6 -24 19 -23 34 2 7 11
15 20 18 20 3 0 6 -9 7 -20 1 -11 -3 -20 -8 -20 -6 0 -7 -5 -3 -12 5 -7 3 -8
-6 -3 -9 6 -11 4 -5 -5 5 -8 4 -11 -2 -7 -5 3 -10 0 -10 -8 0 -8 5 -12 10 -8
5 3 7 -3 3 -13 -4 -13 1 -24 17 -33 20 -13 21 -13 8 2 -7 10 -10 17 -7 17 4 0
2 9 -4 19 -7 13 -7 22 0 26 5 3 10 -1 10 -9 0 -23 16 -28 31 -8 13 15 12 16
-3 3 -20 -15 -19 -16 -22 41 -2 28 17 44 37 31 16 -10 57 -12 51 -2 -2 4 -14
6 -25 4 -15 -3 -23 2 -26 15 -6 23 -12 24 -33 9 -12 -9 -11 -10 5 -4 14 4 17
3 9 -5 -8 -8 -23 -5 -55 10 -24 12 -34 19 -22 17 15 -3 27 2 38 19 18 28 14
30 -23 8 -18 -11 -22 -12 -10 -2 10 8 15 18 12 21 -3 3 8 4 26 2 26 -4 30 -2
20 10 -8 10 -9 19 0 35 6 11 8 25 4 31 -4 6 -1 15 7 19 16 11 21 43 6 37 -7
-3 -11 -10 -9 -16 1 -6 -2 -11 -8 -11 -18 0 -11 25 11 38 12 7 19 16 16 18 -3
3 -17 -2 -31 -11 -14 -10 -26 -13 -26 -7 0 5 10 12 22 16 17 4 20 8 12 16 -9
9 -5 19 15 38 28 29 41 33 54 17 5 -6 7 -3 4 7 -6 18 18 32 36 22 9 -5 9 -4 1
5 -9 10 -17 10 -32 2 -28 -15 -37 0 -10 16 l23 14 -25 -6 c-25 -6 -25 -6 -5
11 16 13 17 16 3 11 -30 -11 -40 24 -15 53 l22 25 -22 -19 c-24 -20 -32 -10
-10 13 10 11 9 12 -1 6 -8 -4 -13 -2 -11 6 3 27 -1 40 -11 34 -5 -3 -10 1 -10
9 0 18 11 21 26 6 6 -6 15 -5 24 1 13 9 12 10 -2 5 -17 -5 -31 7 -35 33 -1 7
-7 19 -14 25 -9 8 -9 6 -1 -10 11 -22 0 -55 -12 -35 -4 6 -5 11 -1 11 3 0 1 9
-5 19 -8 16 -6 22 7 30 10 6 13 11 7 11 -5 0 -15 -5 -22 -12 -16 -16 -16 4 1
21 10 11 8 11 -10 0 -12 -7 -21 -17 -20 -22 1 -5 -3 -11 -9 -14 -7 -2 -11 4
-10 14 0 10 -4 17 -10 16 -6 -1 -11 5 -12 13 -1 7 -3 21 -4 29 -1 8 -5 15 -8
15 -4 0 -13 12 -19 28 -6 15 -29 47 -51 71 -22 24 -37 48 -33 54 3 6 1 7 -5 3
-6 -3 -15 2 -21 11 -6 10 -11 14 -11 10 0 -4 -10 2 -23 14 -12 11 -33 25 -46
30 -15 6 -21 15 -17 25 4 9 2 12 -5 8 -12 -7 -111 35 -105 45 2 3 -6 7 -17 7
-12 1 -53 11 -92 22 -38 11 -88 23 -110 27 -22 5 -388 10 -812 12 l-773 4 0
-1300z m2225 808 c-3 -4 -1 -11 5 -14 6 -4 8 -15 5 -26 -4 -11 -3 -19 2 -18
21 4 34 -2 27 -12 -4 -8 -9 -7 -15 2 -6 10 -9 10 -9 2 0 -7 8 -17 18 -22 11
-7 13 -10 3 -11 -11 0 -11 -3 -1 -15 7 -8 9 -15 6 -15 -4 0 -1 -10 6 -22 16
-30 18 -48 6 -48 -6 0 -7 8 -3 18 4 12 3 14 -5 6 -12 -12 -3 -47 10 -39 5 3
12 0 16 -6 4 -7 3 -9 -3 -6 -6 4 -18 -2 -28 -13 -17 -19 -19 -19 -32 -2 -13
15 -14 15 -9 -8 3 -14 3 -19 0 -12 -3 6 -10 9 -16 6 -5 -4 -5 4 2 16 9 16 15
19 23 11 21 -21 30 -11 11 11 -10 12 -13 18 -6 14 7 -4 12 -2 12 7 0 8 -7 17
-15 21 -9 3 -15 0 -15 -9 0 -8 -5 -15 -10 -15 -8 0 -8 6 -1 17 5 10 17 18 27
18 9 0 19 7 21 15 3 9 1 11 -4 4 -5 -7 -16 -6 -33 4 l-25 14 29 -7 c26 -6 28
-4 16 10 -7 9 -19 14 -26 11 -7 -3 -16 0 -20 6 -4 7 -3 8 4 4 11 -7 17 6 13
27 -1 5 3 6 9 2 5 -3 10 -1 10 6 0 6 -8 9 -19 6 -13 -3 -18 0 -15 8 3 7 0 16
-5 20 -6 3 -9 11 -5 16 3 5 0 17 -8 26 -9 12 -10 15 0 9 7 -4 15 -1 19 10 6
16 7 16 19 -1 7 -10 11 -21 9 -26z m-1405 -19 c0 -5 -17 -18 -37 -29 -21 -11
-36 -21 -33 -21 27 -7 40 -7 40 -2 0 4 9 13 21 20 12 8 18 9 15 4 -3 -6 0 -12
6 -15 10 -3 10 -8 -1 -18 -8 -8 -11 -9 -8 -3 3 6 0 11 -8 11 -8 0 -12 -4 -10
-8 3 -3 -3 -13 -12 -20 -9 -8 -14 -9 -10 -3 3 6 1 11 -6 11 -7 0 -12 -14 -12
-34 0 -29 2 -31 13 -16 6 9 12 21 12 26 0 5 7 3 16 -4 14 -11 18 -11 28 2 6 9
17 14 25 11 11 -4 11 -6 0 -13 -7 -4 -10 -11 -6 -15 4 -4 14 2 23 14 8 12 20
19 26 16 7 -4 6 -9 -2 -14 -8 -5 -7 -9 5 -13 9 -4 13 -3 10 2 -3 5 -1 12 5 16
10 6 11 3 14 -34 0 -11 4 -22 7 -26 4 -3 5 11 3 32 -2 32 -1 35 9 22 11 -15
16 -15 41 -2 27 14 28 14 22 -9 -7 -22 -6 -22 8 2 9 15 11 29 5 36 -5 6 -5 15
-1 19 4 5 -1 5 -10 2 -10 -4 -18 -2 -18 3 0 6 4 10 9 10 5 0 8 11 7 25 -2 13
1 22 6 19 5 -3 8 -11 7 -17 -3 -27 2 -38 14 -31 8 5 8 2 -2 -9 -9 -12 -10 -17
-2 -17 18 0 26 31 10 41 -11 7 -11 9 -1 9 8 0 16 -9 19 -20 5 -19 6 -19 23 2
15 19 20 20 33 9 9 -7 13 -20 10 -29 -6 -15 -5 -15 10 -3 9 7 17 10 17 5 0 -5
7 0 15 10 8 11 15 15 15 10 0 -5 10 -10 23 -11 21 -2 21 -1 3 13 -11 8 -15 14
-9 14 6 0 16 -7 23 -15 11 -14 14 -13 25 2 11 14 16 15 28 5 8 -7 13 -21 10
-32 -7 -25 -23 -16 -18 10 2 11 -1 20 -7 20 -5 0 -8 -6 -5 -14 7 -18 -2 -28
-17 -19 -16 10 -46 11 -52 1 -3 -4 1 -8 9 -8 10 0 13 -7 10 -19 -3 -11 2 -21
12 -25 12 -4 18 0 22 14 5 19 6 19 24 -3 10 -12 18 -16 19 -9 0 6 -1 13 -2 15
-1 1 4 12 10 23 7 13 20 21 34 20 13 -1 28 6 34 17 9 17 11 16 23 -10 7 -15 9
-25 5 -21 -4 4 -13 3 -21 -3 -7 -6 -13 -8 -13 -5 0 4 -10 2 -21 -5 -13 -7 -19
-7 -15 -1 3 6 2 14 -4 17 -7 4 -10 -3 -7 -21 5 -36 20 -41 46 -15 13 13 21 16
22 9 0 -10 2 -10 6 0 2 6 9 9 14 6 6 -3 5 -11 -2 -20 -6 -8 -7 -14 -3 -14 5 0
15 9 22 20 7 11 17 20 23 20 8 0 8 -4 0 -13 -16 -20 -1 -28 21 -12 11 7 27 11
34 8 17 -6 19 13 2 23 -7 5 -8 3 -3 -6 5 -8 4 -11 -3 -6 -6 3 -9 15 -7 26 2
11 0 20 -4 20 -16 0 -20 -13 -10 -32 8 -15 8 -19 -1 -16 -6 2 -12 8 -12 13 0
14 -18 35 -30 35 -6 0 -6 -6 1 -14 7 -8 8 -17 3 -20 -6 -3 -16 2 -23 11 -11
13 -11 17 -1 20 6 3 9 10 5 16 -4 7 5 4 20 -6 24 -16 28 -16 33 -2 5 12 9 13
20 4 16 -13 19 2 4 17 -7 7 -6 11 4 11 8 0 13 -4 11 -8 -3 -4 4 -18 15 -30 19
-22 20 -22 18 -4 -2 11 -7 24 -13 28 -6 5 -4 7 4 5 13 -4 20 -21 23 -55 2 -15
8 -16 28 -3 12 8 12 10 1 10 -8 0 -12 2 -9 5 10 11 39 -8 34 -21 -3 -8 -9 -21
-13 -30 -4 -12 -2 -15 8 -12 8 3 19 -4 26 -16 11 -19 12 -19 8 9 -1 17 -8 29
-14 28 -6 -2 -11 2 -11 7 0 6 5 10 11 10 5 0 7 5 3 12 -4 7 -3 8 5 4 6 -4 9
-12 6 -17 -4 -5 1 -12 9 -15 9 -3 13 -11 10 -16 -4 -6 0 -14 7 -19 10 -6 11
-9 2 -9 -7 0 -13 -5 -13 -11 0 -5 5 -7 10 -4 6 4 10 -12 10 -40 0 -32 -3 -44
-12 -39 -7 4 -8 3 -4 -5 11 -18 -31 -77 -67 -94 -73 -34 -109 -36 -551 -34
-347 2 -440 5 -439 15 2 6 -2 12 -8 12 -5 0 -7 5 -4 10 3 6 2 10 -3 10 -6 0
-12 -7 -16 -15 -3 -8 0 -15 6 -15 6 0 9 -3 5 -6 -15 -15 -26 8 -15 31 6 13 15
22 20 19 6 -4 8 2 6 11 -1 10 -9 20 -17 23 -8 3 -11 0 -7 -6 9 -16 -14 -26
-27 -13 -9 9 -7 10 7 5 13 -5 17 -4 12 4 -10 17 12 25 31 10 21 -15 28 -38 13
-38 -7 0 -7 -6 -1 -19 6 -10 7 -22 3 -26 -4 -5 -2 -5 5 -1 6 3 10 16 8 27 -3
13 0 19 8 16 7 -2 11 -11 9 -20 -1 -8 2 -18 8 -22 11 -7 9 23 -3 43 -10 15 5
16 21 0 7 -7 12 -8 12 -4 0 5 -8 15 -17 22 -17 13 -17 13 0 14 9 0 17 5 17 10
0 7 -6 7 -19 1 -10 -6 -22 -7 -26 -3 -3 4 -12 7 -18 7 -7 1 -11 7 -9 14 2 9
-3 11 -14 7 -13 -5 -14 -4 -5 7 16 21 -19 52 -39 34 -12 -10 -12 -9 -1 6 11
13 17 15 27 6 10 -8 14 -8 14 -1 0 6 -8 16 -17 21 -10 6 -13 11 -8 11 6 0 16
-5 21 -10 8 -8 15 -6 25 6 12 16 12 17 -2 12 -9 -3 -22 -2 -30 4 -11 8 -11 9
3 4 10 -3 20 -1 23 4 3 5 -3 11 -12 13 -17 4 -17 5 0 6 10 0 20 -6 23 -14 4
-8 10 -15 15 -15 5 0 2 14 -7 31 -8 17 -11 28 -6 25 6 -3 12 0 15 6 4 10 7 11
18 1 23 -22 30 -14 12 14 -13 19 -14 25 -4 18 11 -6 13 -4 8 8 -4 10 -2 17 4
17 7 0 9 -10 4 -27 l-7 -28 26 24 c20 19 29 22 38 13 21 -21 32 -13 13 8 -15
17 -16 23 -5 33 10 9 11 9 6 0 -12 -22 3 -33 29 -21 14 6 25 15 25 20 0 5 5 6
10 3 6 -3 10 -1 10 4 0 6 2 11 5 11 3 0 5 -4 5 -10z m117 -22 c-3 -7 -5 -2 -5
12 0 14 2 19 5 13 2 -7 2 -19 0 -25z m462 -2 c-3 -3 -11 5 -18 17 -13 21 -12
21 5 5 10 -10 16 -20 13 -22z m44 19 c-3 -9 -8 -14 -10 -11 -3 3 -2 9 2 15 9
16 15 13 8 -4z m-753 -6 c0 -7 -67 -6 -74 2 -3 3 13 5 34 5 22 0 40 -3 40 -7z
m205 -7 c-3 -3 -11 0 -18 7 -9 10 -8 11 6 5 10 -3 15 -9 12 -12z m102 -4 c-3
-8 -6 -5 -6 6 -1 11 2 17 5 13 3 -3 4 -12 1 -19z m103 12 c-8 -5 -19 -10 -25
-10 -5 0 -3 5 5 10 8 5 20 10 25 10 6 0 3 -5 -5 -10z m65 -28 c-3 -3 -16 5
-28 17 l-22 23 28 -17 c15 -10 25 -20 22 -23z m25 28 c0 -5 -4 -10 -10 -10 -5
0 -10 5 -10 10 0 6 5 10 10 10 6 0 10 -4 10 -10z m70 0 c-8 -5 -19 -10 -25
-10 -5 0 -3 5 5 10 8 5 20 10 25 10 6 0 3 -5 -5 -10z m65 -28 c-3 -3 -16 5
-28 17 l-22 23 28 -17 c15 -10 25 -20 22 -23z m35 22 c0 -2 -7 -4 -15 -4 -8 0
-15 4 -15 10 0 5 7 7 15 4 8 -4 15 -8 15 -10z m103 1 c-3 -9 -8 -14 -10 -11
-3 3 -2 9 2 15 9 16 15 13 8 -4z m-876 -22 c0 -9 -4 -10 -14 -2 -7 6 -13 12
-13 14 0 1 6 2 13 2 8 0 14 -6 14 -14z m281 0 c-2 -10 -7 -21 -13 -25 -6 -5
-5 -8 2 -8 7 0 17 9 23 20 6 11 15 18 20 15 4 -3 11 0 13 5 3 6 4 5 3 -2 -2
-7 -9 -12 -15 -10 -6 1 -11 -2 -11 -8 0 -13 27 -13 35 0 4 7 14 5 28 -5 28
-20 38 -19 30 3 -5 15 -4 15 8 2 8 -8 19 -19 24 -25 6 -5 9 -9 6 -8 -2 1 -12
-2 -23 -8 -11 -6 -27 -7 -36 -3 -9 4 -24 8 -32 8 -8 1 -20 5 -27 9 -6 4 -14 3
-18 -3 -4 -7 -12 -7 -25 0 -14 8 -21 6 -28 -6 -5 -9 -15 -14 -21 -10 -6 4 -9
12 -5 17 3 5 10 7 15 4 5 -4 17 7 27 24 20 35 24 38 20 14z m102 -4 c0 -6 -4
-7 -10 -4 -5 3 -10 11 -10 16 0 6 5 7 10 4 6 -3 10 -11 10 -16z m617 5 c-3 -3
-12 -4 -19 -1 -8 3 -5 6 6 6 11 1 17 -2 13 -5z m-962 -24 c4 -6 -1 -7 -11 -3
-13 5 -15 3 -9 -7 5 -9 4 -11 -4 -6 -6 4 -9 12 -6 17 8 12 22 12 30 -1z m618
-31 c-4 -13 -9 -17 -15 -11 -11 11 -3 32 12 32 4 0 6 -9 3 -21z m37 6 c7 -9 8
-15 2 -15 -5 0 -12 7 -16 15 -3 8 -4 15 -2 15 2 0 9 -7 16 -15z m70 -15 c-24
-15 -37 -11 -16 5 11 8 22 12 25 9 3 -3 -1 -9 -9 -14z m-789 -133 c-8 -8 -14
-7 -23 2 -11 10 -9 11 6 5 15 -6 17 -4 11 6 -6 9 -4 11 4 5 9 -5 10 -10 2 -18z
m69 -58 c0 -5 -4 -9 -8 -9 -5 0 -9 7 -9 15 0 8 4 12 9 9 4 -3 8 -9 8 -15z
m1573 -80 c-8 -8 -13 -7 -18 2 -6 8 -4 10 5 4 10 -6 12 -4 6 11 -6 15 -5 17 5
7 9 -10 10 -16 2 -24z m27 -19 c0 -5 -4 -10 -10 -10 -5 0 -10 5 -10 10 0 6 5
10 10 10 6 0 10 -4 10 -10z m-15 -28 c-3 -3 -11 0 -18 7 -9 10 -8 11 6 5 10
-3 15 -9 12 -12z m-25 -11 c0 -5 -8 -15 -17 -22 -16 -12 -17 -12 -6 2 7 9 10
19 6 22 -3 4 -1 7 5 7 7 0 12 -4 12 -9z m1 -106 c5 4 6 -1 2 -10 -5 -13 -7
-14 -14 -3 -5 7 -8 18 -8 23 0 6 3 4 6 -3 2 -6 9 -10 14 -7z m-81 -70 c0 -7
-30 -13 -34 -7 -3 4 4 9 15 9 10 1 19 0 19 -2z m-44 -23 c-3 -3 -1 -10 4 -17
7 -8 6 -12 -3 -12 -7 0 -13 11 -13 23 0 12 4 20 9 17 4 -3 6 -8 3 -11z m-21
-70 c-3 -3 -11 0 -18 7 -9 10 -8 11 6 5 10 -3 15 -9 12 -12z m73 -58 c-10 -22
-12 -22 -24 -6 -13 17 -5 29 20 29 11 0 12 -5 4 -23z m-151 -26 c-3 -7 -5 -2
-5 12 0 14 2 19 5 13 2 -7 2 -19 0 -25z m-67 16 c0 -8 -19 -13 -24 -6 -3 5 1
9 9 9 8 0 15 -2 15 -3z m41 -11 c13 -17 13 -17 -6 -3 -11 8 -22 16 -24 17 -2
2 0 3 6 3 6 0 17 -8 24 -17z m149 7 c0 -5 -5 -10 -11 -10 -5 0 -7 5 -4 10 3 6
8 10 11 10 2 0 4 -4 4 -10z m-43 -25 c0 -8 -4 -12 -9 -9 -5 3 -6 10 -3 15 9
13 12 11 12 -6z m-172 -15 c3 -5 2 -10 -4 -10 -5 0 -13 5 -16 10 -3 6 -2 10 4
10 5 0 13 -4 16 -10z m-170 -30 c-20 -22 -35 -26 -35 -9 0 5 4 8 9 5 5 -3 14
1 21 9 7 8 15 15 18 15 3 0 -3 -9 -13 -20z m-55 -10 c0 -5 -5 -10 -11 -10 -5
0 -7 5 -4 10 3 6 8 10 11 10 2 0 4 -4 4 -10z m-100 -14 c0 -3 -4 -8 -10 -11
-5 -3 -10 -1 -10 4 0 6 5 11 10 11 6 0 10 -2 10 -4z m50 -11 c0 -11 -29 -11
-33 -1 -4 10 1 12 14 9 10 -3 19 -7 19 -8z m-977 -10 c-3 -9 -8 -14 -10 -11
-3 3 -2 9 2 15 9 16 15 13 8 -4z m70 -6 c-8 -8 -13 -7 -18 2 -5 8 -4 10 3 5 7
-4 12 -2 12 5 0 7 3 9 7 6 4 -4 2 -12 -4 -18z m122 2 c-8 -14 -25 -14 -25 0 0
5 5 7 10 4 6 -3 10 -1 10 6 0 7 3 10 6 6 3 -3 3 -10 -1 -16z m130 -2 c-4 -5
-2 -9 4 -9 5 0 12 5 14 10 3 6 4 5 3 -2 -5 -22 -35 -22 -33 1 0 11 5 17 9 15
5 -3 6 -10 3 -15z m216 6 c5 4 6 -2 2 -11 -4 -12 -3 -15 6 -10 7 4 19 -2 30
-16 11 -13 23 -19 28 -14 4 5 2 11 -5 13 -7 3 -17 14 -23 25 -7 13 -7 18 -1
14 6 -3 13 0 16 6 3 7 3 2 0 -11 -4 -16 -3 -21 5 -17 6 4 11 5 11 2 0 -2 3
-11 6 -19 3 -10 -3 -20 -16 -27 -15 -8 -20 -8 -16 -1 4 6 3 11 -3 11 -5 0 -13
-5 -16 -10 -4 -6 -12 -7 -18 -3 -7 4 -6 0 2 -10 16 -21 3 -22 -23 -2 -14 11
-23 12 -32 4 -19 -16 -36 -2 -24 20 5 10 6 22 2 26 -4 5 -2 5 5 2 6 -4 13 -3
15 3 1 5 16 -1 32 -15 27 -24 46 -25 46 -4 0 6 -4 8 -9 4 -5 -3 -16 4 -24 15
-7 11 -17 17 -21 13 -4 -4 -4 1 0 12 5 11 9 14 12 7 2 -7 8 -10 13 -7z m509 5
c0 -5 -7 -7 -15 -4 -8 4 -15 8 -15 10 0 2 7 4 15 4 8 0 15 -4 15 -10z m-1109
-17 c13 -16 12 -17 -3 -4 -10 7 -18 15 -18 17 0 8 8 3 21 -13z m334 -1 c-3 -3
-11 0 -18 7 -9 10 -8 11 6 5 10 -3 15 -9 12 -12z m658 3 c-3 -9 -8 -14 -10
-11 -3 3 -2 9 2 15 9 16 15 13 8 -4z m87 5 c12 -7 10 -9 -8 -7 -12 0 -22 5
-22 9 0 11 12 10 30 -2z m275 -10 c-10 -11 -22 -17 -27 -14 -5 3 -1 12 9 20
27 20 39 17 18 -6z m-1245 -9 c0 -5 -8 -15 -17 -22 -16 -12 -17 -12 -6 2 7 9
10 19 6 22 -3 4 -1 7 5 7 7 0 12 -4 12 -9z m75 -11 c0 -8 3 -20 7 -25 8 -13
-5 -37 -18 -33 -18 5 -56 -23 -50 -38 3 -8 1 -14 -4 -14 -5 0 -15 -7 -23 -15
-13 -12 -14 -9 -12 31 3 39 1 45 -13 40 -13 -5 -12 -2 3 9 11 9 26 13 33 10
10 -3 12 0 9 10 -8 19 11 31 26 16 19 -19 31 -12 13 8 -16 17 -15 18 6 17 13
-1 23 -7 23 -16z m82 14 c-3 -3 0 -12 6 -19 10 -10 14 -9 25 9 11 19 12 19 10
2 -2 -11 -14 -30 -26 -43 -19 -19 -27 -21 -38 -12 -8 6 -14 8 -14 3 0 -5 -7
-1 -15 9 -18 24 -8 49 15 42 10 -3 21 -1 25 5 3 5 9 10 12 10 4 0 4 -3 0 -6z
m493 -33 c8 -8 14 -17 14 -20 -1 -3 3 -5 10 -3 8 3 8 0 -1 -8 -9 -10 -17 -9
-34 4 -16 11 -26 12 -35 5 -19 -16 -36 -2 -24 20 5 10 6 22 2 26 -4 5 -1 5 6
1 7 -4 12 -2 12 5 0 12 16 2 50 -30z m-690 -1 c0 -6 -5 -10 -12 -10 -6 0 -8 3
-5 7 4 3 -1 12 -11 20 -15 13 -15 13 6 3 12 -6 22 -15 22 -20z m-85 0 c-3 -5
-1 -10 6 -10 7 0 10 -3 6 -6 -9 -9 -28 6 -22 17 4 5 8 9 11 9 3 0 2 -4 -1 -10z
m448 -27 c-3 -8 -8 -12 -11 -9 -2 3 -13 1 -24 -5 -21 -11 -42 -3 -32 13 4 6
10 5 15 -3 7 -11 9 -11 9 -1 0 7 5 10 10 7 6 -3 10 -2 10 3 0 5 6 9 14 9 8 0
12 -6 9 -14z m463 5 c4 4 3 -1 -5 -10 -12 -16 -41 -15 -41 1 0 15 13 21 25 11
7 -5 16 -6 21 -2z m114 6 c0 -8 -19 -13 -24 -6 -3 5 1 9 9 9 8 0 15 -2 15 -3z
m-960 -14 c0 -5 -4 -10 -10 -10 -5 0 -10 5 -10 10 0 6 5 10 10 10 6 0 10 -4
10 -10z m-22 -45 c0 -30 -7 -28 -13 4 -2 11 0 21 4 21 5 0 9 -11 9 -25z m-38
-15 c0 -5 -5 -10 -11 -10 -5 0 -7 5 -4 10 3 6 8 10 11 10 2 0 4 -4 4 -10z m20
-15 c0 -8 -4 -15 -10 -15 -5 0 -7 7 -4 15 4 8 8 15 10 15 2 0 4 -7 4 -15z m26
-39 c3 -8 12 -12 19 -10 18 7 29 -14 16 -30 -6 -7 -8 -16 -5 -19 4 -3 -1 -14
-11 -23 -16 -17 -16 -18 1 -31 28 -21 5 -15 -32 8 -37 22 -44 32 -17 22 11 -4
14 -3 9 5 -13 21 3 33 27 20 20 -10 21 -10 8 5 -7 10 -10 17 -7 17 4 0 4 5 1
10 -4 7 -16 1 -30 -14 -21 -23 -24 -23 -22 -6 1 10 3 17 6 15 5 -6 31 15 31
25 0 5 -8 11 -17 13 -17 4 -17 5 0 6 10 0 20 -5 23 -13z m-26 -11 c0 -2 -9 -3
-19 -2 -11 0 -18 5 -15 9 4 6 34 0 34 -7z m-20 -95 c0 -5 -2 -10 -4 -10 -3 0
-8 5 -11 10 -3 6 -1 10 4 10 6 0 11 -4 11 -10z m30 -21 c0 -5 -4 -9 -8 -9 -5
0 -9 7 -9 15 0 8 4 12 9 9 4 -3 8 -9 8 -15z m-30 -19 c0 -5 -5 -10 -11 -10 -5
0 -7 5 -4 10 3 6 8 10 11 10 2 0 4 -4 4 -10z m20 -75 c-8 -9 -9 -15 -2 -15 6
0 14 4 17 10 4 6 13 5 25 -2 10 -7 16 -16 13 -21 -3 -5 -9 -4 -13 3 -5 9 -9 9
-14 1 -4 -6 3 -15 16 -20 l23 -10 -25 -1 c-20 -1 -22 -3 -7 -8 15 -6 12 -9
-13 -19 -27 -10 -31 -9 -41 10 -9 20 -9 20 4 5 15 -19 30 -12 35 16 3 17 1 18
-11 7 -16 -13 -27 -4 -24 20 3 17 16 39 24 39 3 0 0 -7 -7 -15z m-23 -115 c-2
-23 -10 -17 -12 10 -1 10 2 17 6 14 4 -2 7 -13 6 -24z m68 -40 c-14 -16 -14
-19 -1 -33 14 -13 14 -16 0 -21 -8 -3 -26 1 -40 10 -26 18 -32 26 -11 18 8 -3
13 3 13 16 0 21 -11 27 -19 10 -3 -6 -4 -5 -3 2 1 7 12 14 24 14 12 1 19 -3
16 -7 -3 -5 0 -9 5 -9 6 0 11 7 11 16 0 8 5 12 11 9 7 -5 5 -13 -6 -25z m-65
-50 c0 -5 -2 -10 -4 -10 -3 0 -8 5 -11 10 -3 6 -1 10 4 10 6 0 11 -4 11 -10z
m30 -21 c0 -5 -4 -9 -8 -9 -5 0 -9 7 -9 15 0 8 4 12 9 9 4 -3 8 -9 8 -15z
m-30 -19 c0 -5 -5 -10 -11 -10 -5 0 -7 5 -4 10 3 6 8 10 11 10 2 0 4 -4 4 -10z
m20 -75 c-8 -9 -9 -15 -2 -15 6 0 14 4 17 10 4 6 13 5 25 -2 10 -7 16 -16 13
-21 -3 -5 -9 -4 -13 3 -5 9 -9 9 -14 1 -4 -6 3 -15 16 -20 l23 -10 -25 -1
c-20 -1 -22 -3 -7 -8 15 -6 12 -9 -13 -19 -27 -10 -31 -9 -41 10 -9 20 -9 20
4 5 15 -19 30 -12 35 16 3 17 1 18 -11 7 -16 -13 -27 -4 -24 20 3 17 16 39 24
39 3 0 0 -7 -7 -15z m-23 -115 c-2 -23 -10 -17 -12 10 -1 10 2 17 6 14 4 -2 7
-13 6 -24z m83 -29 c0 -4 -11 -13 -25 -19 -32 -15 -35 -15 -35 -1 0 5 5 7 10
4 6 -3 10 2 10 12 0 15 2 16 10 3 8 -13 10 -12 10 3 0 10 5 15 10 12 6 -3 10
-10 10 -14z m-51 5 c-2 -2 -15 -9 -29 -15 -24 -11 -24 -11 -6 3 16 13 49 24
35 12z m-19 -86 c8 -5 11 -10 5 -10 -5 0 -17 5 -25 10 -8 5 -10 10 -5 10 6 0
17 -5 25 -10z m-10 -30 c0 -5 -5 -10 -11 -10 -5 0 -7 5 -4 10 3 6 8 10 11 10
2 0 4 -4 4 -10z m53 -14 c3 -8 0 -17 -7 -19 -10 -4 -12 1 -9 14 6 23 9 24 16
5z m-37 -35 c2 -26 -14 -37 -29 -22 -9 9 -8 11 3 6 11 -4 16 1 17 15 1 11 -2
18 -7 15 -5 -3 -11 -1 -14 4 -4 5 2 8 11 7 11 -2 18 -12 19 -25z m-16 -71 c0
-5 -5 -10 -11 -10 -5 0 -7 5 -4 10 3 6 8 10 11 10 2 0 4 -4 4 -10z m0 -60 c0
-5 -5 -10 -11 -10 -5 0 -7 5 -4 10 3 6 8 10 11 10 2 0 4 -4 4 -10z m-266 -46
c3 -8 2 -12 -4 -9 -6 3 -10 10 -10 16 0 14 7 11 14 -7z m40 4 c-5 -8 0 -9 14
-6 30 8 38 -9 16 -33 -9 -10 -12 -19 -6 -19 6 0 18 10 26 22 9 12 16 17 16 10
0 -6 5 -12 11 -12 5 0 7 6 3 13 -9 13 26 -12 38 -28 12 -17 0 -21 -62 -20 -44
2 -63 -2 -67 -11 -3 -8 -10 -11 -15 -8 -6 4 -5 10 3 15 11 7 11 9 -1 9 -12 0
-12 2 -1 9 9 6 10 11 2 15 -6 4 -12 2 -12 -3 -3 -26 -7 -52 -8 -58 -1 -8 -30
28 -31 39 0 4 14 17 32 29 17 13 28 17 23 9 -6 -10 -4 -12 8 -7 12 4 14 2 10
-11 -6 -15 -3 -14 15 2 22 19 31 43 12 31 -15 -9 -43 3 -35 15 3 5 8 10 11 10
3 0 2 -5 -2 -12z m101 2 c3 -6 -1 -7 -9 -4 -18 7 -21 14 -7 14 6 0 13 -4 16
-10z m-210 -70 c3 -5 1 -10 -4 -10 -6 0 -11 5 -11 10 0 6 2 10 4 10 3 0 8 -4
11 -10z"/>
<path d="M2297 3963 c-4 -3 -2 -12 4 -20 9 -10 8 -13 -1 -13 -10 0 -10 -3 0
-15 9 -11 16 -13 23 -6 7 7 5 16 -4 27 -8 9 -12 19 -11 21 6 8 -4 13 -11 6z"/>
<path d="M2326 3862 c-3 -5 4 -18 17 -28 21 -19 21 -19 7 0 -8 11 -13 21 -12
23 2 3 1 7 -1 9 -3 3 -8 1 -11 -4z"/>
<path d="M1190 3880 c-6 -11 -15 -18 -19 -15 -5 3 -12 -2 -15 -11 -9 -24 -7
-31 12 -39 14 -5 15 -4 5 6 -15 15 -17 29 -5 29 5 0 16 -15 25 -32 11 -22 15
-25 11 -10 -5 22 -4 23 16 12 14 -8 19 -17 15 -28 -5 -13 -3 -14 6 -5 6 6 8
17 3 25 -5 7 -9 19 -10 26 -2 8 -11 20 -21 28 -10 8 -13 13 -8 12 13 -4 19 16
6 20 -5 2 -15 -6 -21 -18z m35 -49 c-4 -3 -10 1 -15 9 -9 13 -10 13 -10 0 0
-13 -2 -13 -9 0 -15 23 -1 33 20 14 11 -9 17 -20 14 -23z"/>
<path d="M1466 3873 c-6 -14 -5 -15 5 -6 7 7 10 15 7 18 -3 3 -9 -2 -12 -12z"/>
<path d="M1597 3882 c-3 -4 5 -20 18 -34 13 -14 21 -30 17 -34 -4 -5 1 -2 10
5 9 7 22 10 27 7 6 -4 15 3 21 14 11 20 10 21 -9 10 -24 -12 -45 -5 -35 13 4
7 3 9 -1 4 -5 -4 -16 0 -26 9 -9 8 -19 11 -22 6z m33 -27 c13 -14 21 -25 18
-25 -2 0 -15 11 -28 25 -13 14 -21 25 -18 25 2 0 15 -11 28 -25z"/>
<path d="M784 3858 c-19 -21 -19 -21 1 -11 29 15 81 4 56 -12 -6 -3 -11 -1
-11 5 0 6 -5 8 -11 4 -8 -4 -7 -9 2 -15 10 -6 10 -9 2 -9 -6 0 -15 5 -18 10
-4 7 -13 6 -26 -1 -15 -7 -24 -7 -34 1 -18 15 -29 -4 -17 -27 8 -13 3 -23 -21
-46 -27 -25 -29 -31 -16 -41 9 -6 15 -18 14 -26 -2 -9 6 -16 22 -16 20 -2 23
1 17 19 -6 18 -4 20 7 10 10 -8 19 -9 29 -1 13 8 12 9 -2 5 -9 -3 -22 1 -30
10 -11 14 -10 15 12 9 21 -6 22 -5 8 4 -17 10 -17 13 -2 35 9 14 13 25 8 25
-4 0 -3 5 3 11 15 15 56 17 66 4 5 -6 7 -3 4 7 -3 9 -3 19 1 22 10 10 11 37 1
31 -5 -3 -17 -1 -28 4 -14 8 -23 6 -37 -11z m-21 -55 c-13 -10 -14 -13 -2 -14
10 0 10 -2 1 -6 -6 -2 -10 -9 -6 -14 3 -5 -1 -12 -10 -15 -8 -3 -13 -14 -11
-25 3 -14 -1 -19 -12 -17 -9 2 -17 11 -19 21 -1 11 0 16 3 13 7 -7 38 33 38
49 0 6 -4 13 -9 17 -5 3 3 5 18 5 24 -2 25 -3 9 -14z m-28 -113 c3 -6 -1 -7
-9 -4 -18 7 -21 14 -7 14 6 0 13 -4 16 -10z"/>
<path d="M1276 3873 c-4 -5 -12 -9 -17 -9 -20 -3 -21 -4 -11 -16 6 -7 10 -17
10 -23 1 -18 21 -16 31 4 8 13 8 22 1 26 -6 4 -8 11 -5 16 7 11 1 12 -9 2z m7
-26 c-2 -4 -3 -11 -3 -17 0 -5 -5 -10 -12 -10 -6 0 -8 3 -5 7 4 3 2 12 -4 19
-7 9 -6 12 8 10 10 -2 17 -6 16 -9z"/>
<path d="M1571 3811 c-9 -6 -10 -11 -2 -15 6 -4 8 -13 5 -19 -4 -7 -3 -9 1 -4
7 5 16 48 11 47 -1 0 -7 -4 -15 -9z"/>
<path d="M1606 3803 c-6 -14 -5 -15 5 -6 7 7 10 15 7 18 -3 3 -9 -2 -12 -12z"/>
<path d="M925 3800 c3 -5 8 -10 11 -10 2 0 4 5 4 10 0 6 -5 10 -11 10 -5 0 -7
-4 -4 -10z"/>
<path d="M976 3794 c-5 -14 -4 -15 9 -4 17 14 19 20 6 20 -5 0 -12 -7 -15 -16z"/>
<path d="M1130 3802 c0 -4 10 -9 22 -9 18 -2 20 0 8 7 -18 12 -30 13 -30 2z"/>
<path d="M1310 3800 c0 -5 5 -10 11 -10 5 0 7 5 4 10 -3 6 -8 10 -11 10 -2 0
-4 -4 -4 -10z"/>
<path d="M1350 3800 c0 -5 5 -10 10 -10 6 0 10 5 10 10 0 6 -4 10 -10 10 -5 0
-10 -4 -10 -10z"/>
<path d="M1395 3800 c-3 -5 -1 -10 4 -10 6 0 11 5 11 10 0 6 -2 10 -4 10 -3 0
-8 -4 -11 -10z"/>
<path d="M1519 3808 c-5 -18 -6 -38 -1 -34 7 8 12 36 6 36 -2 0 -4 -1 -5 -2z"/>
<path d="M798 3793 c7 -3 16 -2 19 1 4 3 -2 6 -13 5 -11 0 -14 -3 -6 -6z"/>
<path d="M1671 3791 c-10 -7 -7 -9 12 -8 14 1 23 5 20 10 -6 9 -15 9 -32 -2z"/>
<path d="M830 3781 c0 -6 4 -12 8 -15 5 -3 9 1 9 9 0 8 -4 15 -9 15 -4 0 -8
-4 -8 -9z"/>
<path d="M907 3779 c7 -7 15 -10 18 -7 3 3 -2 9 -12 12 -14 6 -15 5 -6 -5z"/>
<path d="M790 3765 c0 -8 4 -15 10 -15 5 0 7 7 4 15 -4 8 -8 15 -10 15 -2 0
-4 -7 -4 -15z"/>
<path d="M1355 3771 c-3 -5 -2 -12 3 -15 5 -3 9 1 9 9 0 17 -3 19 -12 6z"/>
<path d="M830 3740 c0 -5 5 -10 11 -10 5 0 7 5 4 10 -3 6 -8 10 -11 10 -2 0
-4 -4 -4 -10z"/>
<path d="M1021 3866 c-10 -11 -9 -14 1 -12 14 2 23 15 15 22 -2 2 -10 -2 -16
-10z"/>
<path d="M1070 3846 c7 -7 13 -7 20 0 6 6 3 10 -10 10 -13 0 -16 -4 -10 -10z"/>
<path d="M1199 2988 c-11 -20 -10 -21 3 -10 9 7 24 9 34 5 17 -6 17 -5 5 10
-18 23 -28 21 -42 -5z"/>
<path d="M825 3010 c3 -5 8 -10 11 -10 2 0 4 5 4 10 0 6 -5 10 -11 10 -5 0 -7
-4 -4 -10z"/>
<path d="M784 2983 c1 -12 -5 -17 -19 -16 -11 1 -14 0 -6 -4 11 -4 11 -7 0
-14 -11 -7 -11 -9 -1 -9 10 0 10 -5 1 -21 -7 -13 3 -7 25 14 20 20 40 36 44
34 4 -1 8 1 10 6 5 16 1 19 -12 8 -10 -9 -15 -8 -20 4 -8 21 -24 19 -22 -2z
m25 -16 c-2 -1 -13 -9 -24 -17 -19 -14 -19 -14 -6 3 7 9 18 17 24 17 6 0 8 -1
6 -3z"/>
<path d="M876 3002 c-4 -7 -2 -12 4 -12 6 0 8 -5 4 -12 -4 -6 -3 -8 4 -4 6 3
14 2 17 -4 5 -8 11 -7 21 1 11 9 12 15 3 25 -8 10 -15 11 -24 4 -9 -8 -14 -7
-17 2 -3 9 -6 9 -12 0z m48 -23 c-3 -5 -10 -7 -15 -3 -5 3 -7 10 -3 15 3 5 10
7 15 3 5 -3 7 -10 3 -15z"/>
<path d="M1359 2988 c-11 -20 -10 -21 3 -10 9 7 24 9 34 5 17 -6 17 -5 5 10
-18 23 -28 21 -42 -5z"/>
<path d="M713 2815 c0 -8 4 -12 9 -9 4 3 8 9 8 15 0 5 -4 9 -8 9 -5 0 -9 -7
-9 -15z"/>
<path d="M683 2773 c1 -26 12 -30 21 -7 3 8 2 13 -3 9 -5 -3 -11 1 -14 7 -3 7
-4 3 -4 -9z"/>
<path d="M676 2605 c-11 -8 -17 -17 -14 -20 2 -3 13 4 23 15 21 23 18 25 -9 5z"/>
<path d="M683 2451 c1 -11 7 -23 14 -26 11 -4 11 0 2 18 -16 31 -18 32 -16 8z"/>
<path d="M676 2285 c-11 -8 -17 -17 -14 -20 2 -3 13 4 23 15 21 23 18 25 -9 5z"/>
<path d="M471 1776 c-6 -8 3 -11 30 -11 25 -1 35 3 29 9 -14 14 -49 15 -59 2z"/>
<path d="M365 1769 c-4 -6 -5 -12 -2 -15 2 -3 7 2 10 11 7 17 1 20 -8 4z"/>
<path d="M4375 4423 c-4 -10 -62 -171 -130 -358 -68 -187 -171 -473 -230 -635
-59 -162 -125 -342 -145 -400 -21 -58 -57 -157 -80 -220 -24 -63 -49 -133 -57
-155 -8 -22 -19 -45 -24 -51 -5 -6 -6 -13 -3 -16 3 -4 -5 -26 -17 -50 -12 -23
-21 -44 -20 -45 0 -2 1 -4 0 -5 0 -2 -3 -14 -5 -28 -2 -13 -8 -27 -12 -30 -4
-3 -8 -12 -10 -21 -1 -8 -43 -128 -93 -265 -50 -137 -94 -261 -99 -275 l-8
-26 62 1 c33 1 65 -3 69 -9 6 -7 10 -6 14 3 2 6 9 9 15 6 5 -3 2 -14 -8 -25
-9 -10 -15 -19 -13 -20 2 0 13 -3 24 -5 11 -3 25 -6 32 -6 7 -1 14 -7 17 -14
3 -8 0 -11 -10 -7 -7 3 -14 0 -14 -7 0 -6 5 -8 10 -5 6 3 13 -1 16 -9 3 -9 10
-13 15 -10 6 3 16 0 24 -6 11 -9 15 -9 15 -1 0 6 -5 11 -11 11 -5 0 -7 5 -3
12 9 15 35 -19 28 -37 -3 -7 -1 -16 4 -19 5 -3 8 7 6 21 -1 15 2 35 7 45 11
21 -1 24 -20 6 -11 -11 -12 -10 -6 1 5 9 4 12 -3 7 -15 -9 -64 15 -58 29 3 8
-6 11 -26 9 -30 -4 -31 -4 -13 16 13 15 21 17 31 9 7 -6 18 -8 23 -4 7 4 8 -1
4 -12 -6 -15 -4 -16 9 -5 14 11 17 10 22 -5 3 -10 16 -19 27 -20 17 -2 19 1
10 10 -6 6 -11 16 -11 21 0 6 7 2 15 -8 8 -10 12 -23 9 -27 -3 -5 -1 -9 4 -9
6 0 12 7 16 15 3 8 11 15 18 15 8 0 9 -3 3 -8 -5 -4 -10 -14 -10 -22 0 -9 -7
-14 -17 -12 -10 2 -18 -2 -18 -8 0 -5 0 -13 0 -17 0 -5 5 -8 11 -8 6 0 16 -8
24 -18 11 -16 13 -16 19 -2 4 10 2 14 -5 9 -7 -4 -10 -1 -7 7 6 18 70 18 76 0
3 -8 0 -11 -7 -7 -7 5 -8 1 -4 -10 4 -11 8 -13 11 -6 2 7 8 10 13 7 5 -4 6 2
2 12 -7 17 -6 17 18 2 21 -15 27 -15 46 -2 21 14 23 14 32 -8 9 -22 10 -22 10
-4 1 13 8 21 21 22 13 1 18 -2 14 -10 -4 -7 -4 -9 1 -5 4 4 15 2 24 -4 13 -10
13 -9 -1 7 -12 14 -14 25 -8 35 9 14 14 7 11 -13 -1 -4 6 -10 14 -13 8 -3 12
-11 8 -18 -3 -6 -2 -7 3 -3 5 5 9 12 9 15 1 16 17 32 28 26 7 -3 -1 5 -18 20
-32 27 -23 37 11 11 10 -8 24 -14 29 -14 6 0 2 4 -7 10 -10 5 -18 15 -18 21 0
6 7 5 17 -3 11 -10 14 -10 9 -2 -4 7 -2 14 3 14 6 1 15 2 20 3 5 0 13 5 18 10
4 5 3 6 -3 3 -6 -4 -20 3 -30 15 -18 20 -18 21 -1 15 10 -4 16 -3 12 2 -3 5 1
12 7 14 9 4 8 6 -2 7 -10 0 -6 6 10 15 14 8 19 14 12 15 -9 0 -8 6 4 24 10 16
22 23 32 19 15 -4 15 -3 2 6 -12 8 -19 6 -32 -10 -16 -18 -18 -19 -18 -4 0 13
-3 15 -13 6 -8 -6 -17 -8 -21 -4 -3 4 -4 -4 -2 -18 2 -13 5 -24 6 -24 1 0 3
-8 5 -17 4 -21 -6 -23 -23 -6 -8 8 -12 9 -12 1 0 -6 6 -14 13 -16 6 -3 -3 -4
-21 -3 -18 2 -36 7 -40 11 -4 4 4 4 17 0 16 -5 21 -4 17 4 -7 11 6 15 33 11
11 -1 12 1 4 12 -6 7 -11 17 -11 23 0 5 -5 11 -11 13 -6 2 -8 -3 -5 -12 3 -9
4 -16 1 -16 -3 0 -7 7 -10 15 -4 9 4 19 20 27 15 7 28 19 31 26 3 11 1 11 -17
1 -16 -10 -23 -11 -32 -2 -9 9 -7 11 9 6 17 -4 24 1 32 22 8 21 14 25 31 20
20 -7 20 -6 4 19 -14 20 -14 25 -3 21 15 -6 19 30 5 53 -9 14 0 35 13 27 4 -3
10 2 13 9 3 8 1 17 -6 19 -7 3 2 3 18 2 17 -2 34 -4 38 -4 5 -1 5 -7 1 -13 -5
-9 -2 -9 9 1 11 8 17 9 17 3 0 -6 -10 -17 -22 -23 -13 -7 -26 -17 -30 -23 -5
-7 -8 -6 -8 4 -1 11 -3 11 -11 -3 -6 -10 -8 -21 -5 -24 3 -4 6 -1 6 6 0 7 5 9
11 5 8 -4 7 -9 -2 -15 -11 -8 -11 -11 3 -19 11 -7 15 -17 11 -28 -3 -9 -3 -14
2 -10 4 4 15 2 24 -5 8 -6 5 2 -7 20 -26 37 -27 43 -8 43 8 0 18 5 22 11 4 8
-1 9 -17 4 -21 -7 -22 -6 -10 9 8 9 16 14 19 11 3 -3 14 7 24 22 10 16 18 23
18 17 0 -6 7 -11 16 -11 14 0 14 2 -2 14 -11 8 -19 18 -19 23 0 4 -4 12 -9 17
-5 5 -6 2 -1 -6 6 -10 4 -12 -5 -6 -9 6 -11 4 -5 -5 6 -9 4 -11 -5 -5 -9 6
-11 4 -5 -6 8 -12 6 -12 -8 0 -18 15 -23 26 -7 16 6 -3 13 1 16 10 4 10 13 13
26 9 11 -3 18 -2 15 3 -3 5 -2 15 3 23 5 8 4 22 -1 33 -9 16 -8 17 10 8 26
-14 29 -14 34 7 4 16 5 16 6 -1 0 -10 -6 -20 -14 -23 -8 -4 -12 -10 -9 -15 3
-5 -2 -12 -11 -15 -13 -6 -14 -8 -3 -15 7 -5 8 -9 2 -9 -6 0 -11 -7 -11 -15 0
-8 4 -12 9 -9 4 3 8 0 8 -5 0 -6 5 -11 12 -11 9 0 9 3 0 12 -16 16 -16 33 1
21 17 -14 47 -24 46 -15 -1 4 -1 14 0 22 1 12 5 11 17 -5 16 -19 16 -19 9 5
-7 22 -6 23 8 11 10 -8 24 -10 34 -6 10 5 26 10 37 12 17 3 17 1 5 -14 -13
-17 -13 -17 5 -3 18 14 19 13 12 -5 -6 -16 -5 -18 5 -7 10 9 10 15 1 24 -14
14 -16 28 -3 28 5 0 13 -10 17 -22 6 -19 7 -19 16 -4 5 9 15 13 21 10 7 -4 6
-1 -2 7 -11 11 -14 11 -18 1 -4 -10 -8 -9 -17 4 -9 11 -18 14 -27 8 -23 -14
-40 -13 -46 3 -5 12 -7 12 -14 1 -7 -10 -9 -11 -9 0 0 7 -4 11 -9 8 -13 -8
-45 20 -37 32 4 7 13 12 19 11 9 0 9 -2 0 -6 -20 -7 -15 -19 7 -19 11 0 20 5
20 11 0 5 8 -3 19 -18 l18 -28 27 31 c14 17 26 28 26 23 0 -5 -5 -14 -12 -21
-9 -9 -9 -12 -1 -12 7 0 15 5 18 10 8 13 35 13 35 0 0 -6 -3 -9 -7 -9 -19 3
-36 -2 -30 -8 13 -12 57 -12 54 0 -1 7 5 12 13 12 8 0 20 3 25 6 19 10 65 9
65 -2 0 -5 5 -7 10 -4 7 5 8 11 1 19 -6 8 -6 17 0 26 8 12 9 11 7 -4 -2 -10 3
-21 11 -24 9 -3 11 0 6 8 -5 9 -4 11 3 6 7 -4 12 -2 12 5 0 7 3 9 7 5 5 -4 -8
-21 -27 -37 -19 -15 -29 -29 -22 -29 8 0 27 13 43 29 16 16 29 26 29 22 0 -4
-5 -12 -12 -19 -17 -17 -2 -15 27 4 26 17 31 12 25 -25 -1 -13 1 -13 14 -2 13
11 19 11 33 0 15 -12 16 -12 9 6 -4 11 -8 24 -9 30 -2 13 61 16 69 4 3 -5 10
-7 15 -4 5 3 6 -1 3 -10 -5 -11 -2 -14 10 -9 9 3 16 2 16 -3 0 -5 9 -9 20 -10
11 -1 18 2 16 6 -3 4 1 17 9 27 8 10 15 14 15 8 0 -5 -5 -15 -11 -21 -8 -8 -8
-13 0 -17 6 -4 11 -3 11 3 0 6 8 7 18 4 15 -6 15 -5 3 10 -18 22 -7 22 15 0
16 -16 18 -16 36 6 10 13 22 20 26 16 4 -4 1 -10 -6 -12 -6 -3 -10 -9 -7 -14
4 -5 17 -2 30 7 14 9 26 11 29 5 4 -5 2 -12 -4 -16 -6 -4 -7 -11 -4 -17 4 -6
10 -5 16 3 8 11 9 11 5 -1 -4 -14 -24 -21 -40 -12 -4 2 -2 11 5 20 11 13 11
14 -2 10 -8 -3 -14 -12 -14 -21 1 -10 -3 -14 -10 -10 -6 3 -8 3 -4 -2 4 -4 3
-16 -2 -26 -7 -12 -7 -20 0 -24 6 -4 10 -3 9 2 -3 20 2 34 11 28 6 -4 8 -11 5
-16 -3 -5 1 -6 10 -2 10 3 21 0 26 -8 6 -10 9 -11 9 -1 0 7 -10 17 -22 22 -25
9 -24 10 9 14 12 1 20 -1 17 -6 -3 -4 0 -8 6 -8 7 0 10 -7 6 -15 -3 -8 -1 -15
4 -15 8 0 24 -51 20 -66 -1 -4 2 -10 7 -13 14 -10 63 -152 56 -164 -3 -5 -1
-7 4 -4 6 4 16 -12 23 -38 12 -44 24 -59 45 -60 6 -1 9 -7 7 -15 -2 -11 1 -11
11 2 12 15 14 15 25 0 7 -9 11 -12 8 -7 -3 6 15 11 44 11 36 0 47 -3 43 -13
-4 -9 0 -11 11 -7 10 4 18 0 23 -12 6 -15 7 -15 14 4 5 12 14 22 21 21 10 0
10 -2 1 -6 -19 -7 -16 -19 5 -19 9 -1 25 -4 35 -9 12 -5 17 -3 17 10 0 10 -5
13 -12 9 -7 -4 -8 -3 -4 5 9 14 26 5 26 -15 0 -8 4 -12 10 -9 6 4 7 -1 3 -12
-6 -16 -5 -17 13 -3 10 8 16 10 12 6 -4 -5 -3 -15 3 -23 9 -9 8 -13 0 -13 -6
0 -11 6 -11 13 0 8 -4 7 -10 -3 -6 -10 -10 -11 -10 -2 0 6 -4 12 -9 12 -8 0
-8 -8 -2 -39 1 -2 8 2 17 10 13 11 15 9 9 -17 -4 -23 -3 -25 4 -9 7 14 10 15
10 5 1 -13 3 -13 10 -1 8 13 12 13 27 0 15 -12 17 -12 9 0 -6 11 -4 13 8 8 11
-4 14 -2 11 8 -3 8 -15 12 -28 9 -18 -3 -22 1 -21 20 0 24 15 50 15 28 0 -7 5
-12 11 -12 6 0 9 7 6 15 -4 8 -1 17 5 21 6 4 8 3 5 -3 -4 -6 1 -17 10 -24 14
-12 15 -11 9 8 -4 12 -2 24 5 29 7 4 10 2 7 -7 -3 -8 -1 -22 4 -32 9 -18 11
-18 34 4 13 12 20 27 17 33 -4 6 1 5 10 -3 9 -7 17 -19 17 -25 0 -8 -2 -8 -8
0 -5 9 -11 8 -20 -2 -7 -8 -11 -14 -10 -15 36 -8 55 -5 55 9 0 10 -6 24 -14
34 -12 13 -12 17 -1 24 7 4 10 4 6 -1 -4 -4 -1 -14 7 -21 18 -18 29 -18 21 1
-3 8 0 14 6 12 7 -1 13 5 14 13 0 8 2 21 2 28 3 22 25 8 27 -16 1 -11 -2 -19
-6 -16 -4 2 -6 -5 -4 -16 2 -11 0 -20 -6 -20 -5 0 -9 5 -9 12 0 6 -3 8 -6 5
-4 -4 -1 -13 5 -21 7 -9 8 -16 2 -20 -5 -4 -11 2 -13 11 -2 10 -6 14 -9 8 -3
-5 4 -25 17 -43 18 -27 23 -29 21 -13 -1 12 -6 21 -11 21 -17 0 4 14 25 17 12
2 29 8 38 14 13 8 12 9 -6 4 -23 -6 -23 -6 -6 24 10 16 22 27 27 24 5 -3 6 -1
2 5 -11 17 -12 16 -41 -31 -17 -29 -24 -35 -22 -19 2 12 8 27 14 33 6 6 9 18
6 27 -4 8 2 21 12 28 10 8 14 14 8 14 -7 0 -15 -5 -18 -10 -3 -6 -11 -10 -18
-10 -8 0 -8 3 1 12 19 19 14 30 -10 23 -23 -7 -23 -7 -3 10 11 9 15 14 8 11
-6 -4 -14 -2 -17 3 -3 5 1 12 9 15 9 3 18 -1 21 -9 4 -8 11 -15 17 -15 5 0 4
8 -5 18 -8 9 -13 27 -12 39 0 12 -2 21 -5 21 -13 -4 -51 14 -51 23 0 6 9 5 23
-1 20 -10 20 -10 5 3 -10 8 -14 18 -10 23 4 4 0 3 -10 -4 -11 -9 -18 -10 -23
-2 -3 5 -1 10 4 10 6 0 11 7 11 15 0 8 -5 15 -10 15 -6 0 -9 -3 -9 -7 1 -5 0
-11 -1 -15 -4 -14 -7 -28 -9 -40 -1 -8 -7 -7 -18 4 -14 15 -14 19 -2 34 12 16
12 17 -3 11 -13 -4 -15 -2 -11 10 5 12 3 14 -7 8 -9 -5 -11 -4 -6 3 4 6 0 25
-9 42 -8 16 -12 30 -9 30 4 0 -1 9 -11 20 -17 19 -17 19 3 15 26 -5 47 37 32
66 -6 11 -15 17 -21 14 -5 -4 -9 -2 -9 4 0 22 20 19 40 -6 15 -20 18 -22 10
-6 -5 12 -19 28 -30 36 -14 10 -18 21 -14 43 3 21 2 25 -5 14 -5 -8 -7 -18 -4
-24 4 -5 -1 -7 -10 -3 -9 3 -19 1 -23 -5 -4 -6 -3 -8 4 -4 7 4 9 -5 7 -26 -3
-24 -2 -29 5 -18 6 9 10 10 10 3 0 -6 -5 -15 -10 -18 -6 -4 -7 -12 -4 -18 4
-7 3 -8 -1 -4 -10 9 -16 33 -16 60 0 11 -5 15 -12 11 -7 -4 -9 -4 -5 1 4 4 2
15 -5 24 -11 14 -10 15 7 1 18 -14 19 -13 13 2 -3 10 -1 20 5 24 7 4 8 3 4 -4
-4 -7 -3 -12 2 -12 15 0 24 32 12 44 -8 8 -10 7 -5 -5 3 -9 1 -16 -7 -16 -7 0
-22 -4 -33 -8 -17 -6 -16 -5 3 10 16 12 21 23 16 37 -5 18 -4 18 16 8 12 -6
24 -9 27 -7 2 3 -5 8 -16 12 -26 8 -27 21 -3 34 16 10 16 10 0 11 -10 0 -18
-5 -18 -11 0 -5 -5 -7 -10 -4 -8 5 -7 12 2 23 10 12 10 14 1 8 -8 -4 -13 -2
-13 4 0 6 -4 8 -10 5 -5 -3 -10 -1 -10 5 0 6 -5 8 -11 4 -8 -4 -3 -12 12 -20
13 -7 18 -13 10 -14 -7 0 -11 -6 -8 -13 3 -7 -2 -22 -10 -32 -12 -15 -14 -16
-10 -3 3 9 1 19 -6 22 -9 3 -9 5 1 5 6 1 12 6 12 12 0 5 -4 8 -9 4 -5 -3 -13
0 -17 6 -4 7 -3 9 4 5 7 -4 10 1 9 14 -1 20 -12 27 -20 13 -2 -5 -2 -3 -1 4 2
7 -1 15 -7 19 -6 4 -6 11 2 20 9 11 6 16 -12 23 -14 6 -18 10 -9 11 8 1 23 3
33 5 9 2 17 -1 17 -6 0 -5 -6 -9 -12 -9 -9 0 -8 -4 2 -10 11 -7 11 -10 2 -10
-7 0 -10 -5 -6 -11 4 -8 9 -7 16 2 7 10 8 8 4 -7 -5 -15 -2 -21 11 -21 18 0
33 14 33 31 0 6 -7 1 -16 -10 -12 -15 -15 -15 -10 -2 2 9 -1 18 -7 21 -14 5
-16 65 -3 85 4 7 4 13 -1 14 -4 0 -12 2 -18 3 -5 2 -14 3 -20 4 -5 1 -3 6 5
11 9 6 11 10 3 10 -7 0 -10 6 -7 14 3 7 -3 17 -13 20 -17 7 -17 8 0 20 16 12
15 14 -8 14 -27 0 -31 -8 -14 -25 7 -7 4 -12 -10 -16 -24 -6 -41 12 -45 47 -1
13 -8 32 -16 40 -8 11 -9 16 -1 16 6 0 11 -5 11 -10 0 -6 3 -9 8 -9 19 3 23
-2 12 -16 -10 -12 -8 -14 9 -10 14 2 19 0 15 -7 -5 -7 -2 -8 5 -4 7 5 10 11 7
14 -3 3 2 14 11 25 10 11 13 18 7 14 -6 -4 -21 2 -33 12 -21 18 -19 32 2 27 7
-2 9 -1 5 1 -4 2 -4 12 -1 21 5 14 3 13 -9 -2 -14 -17 -15 -16 -16 18 -1 20 2
34 7 32 5 -3 8 4 7 17 -1 13 4 21 12 19 8 -1 11 2 7 8 -3 6 -11 7 -17 4 -6 -4
-17 1 -25 11 -18 26 -16 9 3 -20 15 -23 15 -25 0 -31 -9 -3 -13 -10 -11 -15 3
-5 -1 -23 -10 -41 -15 -31 -15 -32 1 -13 14 17 16 18 10 2 -4 -13 -2 -16 7
-11 6 4 9 4 5 -1 -4 -4 -3 -14 3 -22 9 -9 8 -13 0 -13 -6 0 -11 5 -11 10 0 6
-3 9 -7 9 -26 -4 -34 2 -28 22 6 16 4 20 -6 13 -10 -6 -10 -3 1 11 14 17 13
18 -5 11 -11 -4 -16 -4 -12 0 4 4 2 13 -4 21 -9 10 -8 17 1 28 12 15 4 20 -22
16 -5 0 -8 3 -8 8 0 5 11 8 24 7 17 -1 23 -6 21 -18 -2 -10 0 -18 6 -18 5 0 8
-3 8 -7 -3 -20 2 -33 12 -33 8 0 8 4 0 14 -10 11 -9 16 4 24 15 8 15 10 1 24
-8 9 -12 19 -8 23 4 5 1 5 -7 0 -10 -6 -12 -2 -6 14 3 11 3 21 -2 21 -5 0 -9
9 -10 20 -1 11 1 18 5 16 4 -3 8 4 8 14 0 10 -3 17 -6 15 -9 -6 -44 24 -37 32
4 4 13 1 19 -5 15 -15 28 -16 28 -2 0 6 -6 9 -12 8 -7 -2 -12 3 -10 10 1 8 -2
11 -7 8 -5 -4 -13 -1 -17 5 -5 8 1 10 19 7 15 -3 24 -1 21 4 -4 6 -17 8 -30 5
-14 -2 -29 2 -36 11 -11 13 -10 15 6 8 19 -6 19 -6 3 12 -21 23 -21 32 -1 32
8 0 13 -4 9 -9 -3 -5 -1 -12 4 -15 5 -4 8 2 7 11 -2 11 -12 18 -25 17 -11 0
-21 3 -21 8 0 8 16 12 35 8 6 -1 6 2 2 7 -5 4 -12 8 -16 8 -4 0 -15 8 -25 18
-15 15 -14 21 5 19 3 -1 6 6 6 14 0 8 -4 14 -9 14 -4 0 -8 -4 -8 -8 0 -5 -6
-9 -14 -9 -8 0 -14 9 -13 19 1 13 7 17 22 13 11 -3 14 -2 7 1 -6 3 -9 11 -5
17 3 7 3 9 -2 5 -4 -4 -16 -3 -26 2 -12 7 -20 6 -25 -2 -5 -7 -3 -8 6 -3 9 6
11 4 5 -5 -6 -9 -4 -11 5 -5 9 5 11 4 6 -4 -6 -8 -12 -9 -20 -2 -9 7 -17 7
-27 -2 -7 -6 -10 -8 -6 -3 4 5 1 16 -6 25 -10 14 -10 14 4 4 9 -7 19 -10 22
-6 9 9 9 23 0 22 -19 -3 -31 2 -37 16 -3 8 -2 14 2 14 19 -3 26 2 13 10 -16
11 2 52 22 47 6 -1 8 -1 4 2 -4 2 -2 11 5 20 12 16 11 16 -6 2 -18 -14 -19
-13 -13 4 5 13 1 23 -13 33 -23 16 -27 35 -5 27 8 -4 15 -1 15 6 0 6 -4 9 -9
6 -5 -3 -14 1 -21 9 -7 8 -16 12 -22 9 -5 -3 -4 -12 3 -20 13 -16 6 -30 -10
-20 -5 4 -7 18 -5 33 4 22 3 24 -9 15 -11 -10 -17 -9 -27 2 -6 9 -9 20 -6 25
4 5 2 13 -4 16 -6 4 -8 16 -4 27 4 14 2 18 -5 14 -7 -5 -8 -1 -4 10 4 10 2 15
-3 11 -5 -3 -11 3 -12 14 -4 43 -6 48 -19 53 -8 3 -12 10 -8 16 3 5 -2 21 -11
35 -12 18 -13 25 -4 23 7 -2 15 3 18 11 2 8 0 11 -5 8 -5 -3 -15 -2 -23 3 -11
7 -11 11 0 24 11 14 10 19 -2 34 -9 9 -13 23 -11 30 3 7 0 11 -7 10 -6 -2 -19
7 -27 20 -12 16 -12 22 -3 20 7 -2 15 3 18 11 2 8 0 11 -6 8 -5 -4 -16 1 -23
10 -12 14 -12 16 0 9 9 -6 12 -5 9 5 -3 8 -11 13 -17 11 -7 -1 -10 2 -6 8 3 6
11 8 16 5 5 -4 9 -2 9 2 0 5 -12 16 -27 25 -16 10 -23 18 -16 18 7 0 10 7 7
15 -4 8 -11 12 -18 8 -6 -4 -4 2 4 12 14 17 13 18 -4 12 -16 -6 -17 -5 -6 8
12 14 7 20 -15 15 -5 -1 -7 2 -3 6 4 4 3 13 -3 21 -6 7 -9 13 -6 13 3 0 -1 12
-8 27 -12 23 -12 31 -1 49 12 17 12 21 1 21 -8 0 -12 -4 -9 -8 2 -4 0 -10 -6
-14 -5 -3 -10 0 -10 7 0 6 -10 38 -22 70 l-23 58 -291 0 c-269 0 -292 -1 -299
-17z m793 -518 c-3 -3 -9 2 -12 12 -6 14 -5 15 5 6 7 -7 10 -15 7 -18z m-482
-311 c1 -9 0 -13 -4 -10 -3 4 -7 14 -8 22 -1 9 0 13 4 10 3 -4 7 -14 8 -22z
m14 -29 c12 2 20 1 16 -3 -13 -13 -63 -10 -63 4 0 9 4 11 12 4 6 -5 22 -8 35
-5z m20 -35 c-6 -11 -13 -20 -16 -20 -2 0 0 9 6 20 6 11 13 20 16 20 2 0 0 -9
-6 -20z m635 0 c12 -10 13 -16 4 -26 -9 -11 -8 -14 2 -14 10 0 10 -3 1 -12
-17 -17 -42 -19 -35 -2 3 8 -1 14 -8 14 -9 0 -10 3 -4 8 24 17 13 38 -17 33
-5 0 -8 3 -8 8 0 13 46 7 65 -9z m-709 -22 c-9 -12 -16 -19 -16 -15 0 11 24
47 28 42 2 -2 -3 -14 -12 -27z m42 -3 c-3 -3 -9 2 -12 12 -6 14 -5 15 5 6 7
-7 10 -15 7 -18z m-22 -4 c-11 -17 22 -20 44 -4 18 13 24 13 30 2 5 -7 6 -17
4 -21 -3 -4 0 -8 6 -8 7 0 10 -6 7 -12 -2 -7 1 -20 8 -28 11 -14 44 -96 45
-112 1 -4 7 -23 15 -42 8 -18 11 -36 8 -40 -4 -3 -1 -6 5 -6 7 0 12 -7 12 -15
0 -8 4 -23 9 -33 22 -41 42 -113 35 -124 -4 -7 -3 -9 1 -5 8 7 83 -181 84
-211 1 -10 -51 -13 -255 -11 -152 1 -251 5 -243 10 10 6 10 9 2 9 -9 0 -7 6 5
18 11 12 20 14 24 8 4 -6 8 -7 8 -2 0 6 5 5 12 -2 7 -7 17 -12 23 -12 5 0 2 5
-8 11 -14 8 -16 14 -6 25 8 10 8 14 0 14 -6 0 -11 5 -11 10 0 7 7 7 21 -1 13
-6 19 -7 15 -1 -3 6 -1 12 6 14 7 3 5 7 -6 11 -11 4 -15 3 -10 -4 4 -7 1 -10
-7 -7 -8 3 -14 11 -15 19 -3 41 -3 42 -19 29 -8 -7 -12 -17 -9 -22 4 -6 10 -5
15 3 6 10 9 10 9 2 0 -6 -4 -14 -10 -18 -5 -3 -7 -13 -4 -23 5 -13 4 -14 -4
-4 -7 11 -10 11 -15 -3 -5 -10 -3 -14 5 -9 7 4 8 3 4 -4 -8 -14 -56 5 -53 21
1 6 -3 11 -10 12 -6 0 -15 4 -20 9 -5 5 -3 6 5 2 7 -4 12 -2 12 6 0 7 8 1 18
-14 9 -16 20 -28 25 -28 4 0 6 4 3 9 -3 5 1 12 10 15 15 6 15 9 -2 28 -11 12
-14 18 -7 15 6 -4 14 -3 17 2 4 5 -2 12 -13 16 -11 3 -22 13 -26 22 -5 15 -4
15 13 0 24 -22 38 -22 21 0 -12 14 -12 16 0 8 11 -6 13 -4 9 7 -4 8 -2 21 3
29 7 12 9 12 10 -1 1 -8 1 -22 0 -30 -1 -11 3 -10 14 4 8 11 11 22 7 25 -5 3
-11 14 -15 24 -5 14 -3 16 11 9 9 -5 25 -8 35 -7 9 2 17 -1 17 -7 0 -6 -7 -7
-16 -4 -10 4 -13 2 -8 -7 5 -7 0 -6 -12 3 -17 13 -18 13 -8 0 5 -8 9 -25 8
-37 0 -13 3 -23 9 -23 6 0 7 -3 4 -6 -4 -4 -14 -1 -24 7 -14 12 -16 12 -8 0 6
-10 4 -12 -6 -6 -12 8 -12 6 0 -8 7 -9 17 -14 23 -11 5 3 15 1 22 -5 10 -9 17
-7 27 6 13 16 12 17 -3 4 -10 -7 -18 -12 -19 -10 -9 48 -9 53 3 41 6 -6 16
-12 20 -12 4 0 -2 10 -13 21 -20 20 -20 23 -5 31 11 6 15 16 10 30 -3 11 -2
18 3 15 5 -3 15 -2 22 2 10 6 10 14 3 28 -8 14 -8 23 0 31 7 7 8 12 3 12 -5 0
0 6 11 14 10 8 15 18 11 23 -11 10 -38 -27 -30 -40 3 -6 1 -7 -5 -3 -7 4 -10
-1 -7 -14 2 -12 0 -18 -6 -15 -5 4 -8 3 -7 -2 1 -4 -1 -18 -6 -30 -6 -19 -10
-21 -32 -11 -29 14 -30 19 -4 36 24 15 26 28 4 36 -12 5 -15 2 -10 -9 3 -9 2
-13 -4 -10 -6 3 -10 1 -10 -4 0 -6 -4 -11 -8 -11 -5 0 -9 7 -9 15 0 8 3 13 5
10 3 -3 10 3 17 12 11 15 14 14 33 -5 12 -12 24 -17 27 -12 3 5 -3 15 -14 22
-17 10 -18 13 -4 23 12 9 13 16 5 32 -8 14 -8 23 0 31 9 9 9 12 0 12 -6 0 -16
-8 -21 -17 -6 -10 -11 -13 -11 -7 0 17 27 37 40 29 6 -3 8 -11 4 -16 -8 -13
29 -7 38 6 4 5 6 0 5 -12 0 -12 -5 -19 -11 -16 -5 3 -6 1 -2 -5 10 -16 27 -15
25 1 -4 31 2 90 8 83 4 -4 8 -14 8 -23 0 -8 10 -22 22 -30 21 -14 22 -14 18 6
-2 12 -7 26 -10 31 -4 7 3 9 19 6 15 -3 24 -1 21 4 -3 5 -19 7 -36 5 -26 -4
-29 -2 -19 10 7 8 22 13 34 11 11 -2 15 -1 9 1 -16 5 -17 19 -3 28 6 3 10 11
10 16 0 6 -11 -2 -25 -17 -14 -15 -25 -21 -25 -15 0 7 -5 9 -11 5 -8 -4 -7 -9
2 -15 13 -8 12 -10 -11 -13 -15 -2 -30 -28 -23 -41 3 -5 0 -4 -8 3 -19 18 -34
15 -18 -5 13 -15 12 -15 -8 -2 -19 11 -20 15 -8 22 8 4 20 5 25 2 6 -3 10 -2
10 4 0 5 -6 12 -12 15 -7 3 -4 4 6 3 10 -1 21 4 24 12 3 8 0 11 -7 7 -6 -4
-11 -2 -11 4 0 7 6 10 14 7 8 -3 20 2 28 10 11 14 11 16 -4 10 -10 -3 -20 -1
-24 5 -4 7 -10 5 -16 -6 -5 -9 -13 -14 -19 -11 -5 4 -9 2 -9 -4 0 -5 6 -12 13
-14 9 -4 9 -6 0 -6 -7 -1 -17 8 -23 18 -8 17 -7 19 8 16 23 -4 52 42 57 88 4
38 4 37 11 37 3 0 3 -4 0 -9z m-59 -46 c0 -8 -4 -12 -9 -9 -5 3 -6 10 -3 15 9
13 12 11 12 -6z m20 -27 c-3 -7 -5 -2 -5 12 0 14 2 19 5 13 2 -7 2 -19 0 -25z
m713 12 c0 -5 -2 -10 -4 -10 -3 0 -8 5 -11 10 -3 6 -1 10 4 10 6 0 11 -4 11
-10z m-739 -33 c-10 -9 -11 -8 -5 6 3 10 9 15 12 12 3 -3 0 -11 -7 -18z m812
-83 c-3 -7 7 -23 21 -35 18 -16 24 -29 21 -50 -2 -16 1 -29 7 -29 5 0 8 -6 5
-14 -3 -8 3 -22 13 -31 13 -11 18 -27 15 -46 -3 -23 0 -29 12 -27 9 2 18 -3
20 -9 3 -7 -1 -13 -7 -13 -10 0 -10 -4 0 -15 7 -8 9 -15 5 -15 -4 0 -3 -6 3
-13 7 -8 7 -18 2 -27 -9 -14 -25 -7 -25 10 0 5 -9 16 -20 24 -12 9 -15 15 -7
16 7 0 10 5 7 10 -4 6 -12 7 -18 4 -7 -4 -9 -4 -5 1 4 4 3 14 -4 22 -6 7 -8
16 -4 20 3 3 6 1 6 -5 0 -6 7 -9 15 -6 13 5 13 8 0 21 -9 8 -12 19 -9 24 3 6
-2 9 -12 7 -13 -2 -19 3 -20 17 -2 26 -8 49 -14 55 -3 3 -11 15 -18 28 -12 21
-11 22 7 10 11 -6 19 -16 18 -21 -1 -5 5 -12 13 -14 12 -4 12 -3 2 5 -8 5 -14
13 -14 17 0 4 6 12 14 17 9 6 8 8 -7 6 -12 -2 -19 2 -17 10 1 6 -1 12 -5 12
-15 1 -45 29 -40 37 9 14 45 10 40 -3z m-848 -14 c3 -6 -1 -7 -9 -4 -18 7 -21
14 -7 14 6 0 13 -4 16 -10z m129 -16 c4 -10 1 -14 -6 -12 -15 5 -23 28 -10 28
5 0 13 -7 16 -16z m-204 -168 c0 -2 -7 -7 -16 -10 -8 -3 -12 -2 -9 4 6 10 25
14 25 6z m130 0 c0 -3 -4 -8 -10 -11 -5 -3 -10 -1 -10 4 0 6 5 11 10 11 6 0
10 -2 10 -4z m-114 -28 c5 -7 3 -8 -6 -3 -10 6 -12 4 -6 -11 5 -14 4 -16 -5
-7 -6 6 -8 16 -5 22 9 14 13 14 22 -1z m-58 -123 c-3 -3 -9 2 -12 12 -6 14 -5
15 5 6 7 -7 10 -15 7 -18z m1110 -20 c-3 -3 -9 2 -12 12 -6 14 -5 15 5 6 7 -7
10 -15 7 -18z m-1073 -5 c3 -5 1 -10 -4 -10 -6 0 -11 5 -11 10 0 6 2 10 4 10
3 0 8 -4 11 -10z m-35 -65 c0 -8 -3 -16 -7 -18 -5 -3 -8 5 -8 18 0 13 3 21 8
18 4 -2 7 -10 7 -18z m80 15 c0 -5 -5 -10 -11 -10 -5 0 -7 5 -4 10 3 6 8 10
11 10 2 0 4 -4 4 -10z m-105 -20 c-3 -5 -12 -10 -18 -10 -7 0 -6 4 3 10 19 12
23 12 15 0z m65 -2 c0 -4 -7 -8 -15 -8 -8 0 -15 4 -15 8 0 5 7 9 15 9 8 0 15
-4 15 -9z m-37 -39 c-8 -8 -13 -7 -18 2 -5 8 -4 10 3 5 7 -4 12 -2 12 5 0 7 3
9 7 6 4 -4 2 -12 -4 -18z m1177 -24 c0 -1 -6 -7 -13 -13 -10 -8 -13 -6 -14 8
-1 13 3 17 13 13 8 -3 14 -6 14 -8z m25 -113 c-4 -24 13 -42 32 -35 12 5 14 3
7 -8 -4 -8 -9 -20 -9 -28 0 -16 -52 -25 -60 -10 -3 5 1 6 10 3 13 -6 14 -3 4
19 -7 15 -17 23 -23 20 -6 -4 -4 2 4 12 14 17 13 18 -3 12 -10 -4 -16 -3 -12
2 3 5 -1 12 -7 15 -7 3 -2 3 11 0 17 -5 21 -3 16 6 -5 9 -4 11 3 6 7 -4 12 -2
12 4 0 6 4 9 9 6 5 -4 8 -14 6 -24z m81 -258 c-4 -32 -21 -50 -31 -33 -5 7 -4
10 3 5 6 -3 13 -2 17 4 3 5 1 10 -5 10 -7 0 -8 6 -1 19 6 10 7 22 3 26 -4 5
-2 5 5 1 6 -3 10 -18 9 -32z m52 -129 c-3 -3 -9 2 -12 12 -6 14 -5 15 5 6 7
-7 10 -15 7 -18z m-1584 7 c3 -5 -1 -9 -9 -9 -8 0 -12 4 -9 9 3 4 7 8 9 8 2 0
6 -4 9 -8z m58 -3 c2 -2 1 -3 -1 -1 -2 1 -14 -6 -25 -15 -15 -14 -18 -14 -8
-2 6 9 9 18 6 22 -3 3 1 4 10 3 8 -1 17 -4 18 -7z m238 -24 c-15 -18 -34 -20
-27 -2 2 6 10 11 17 9 8 -2 10 3 6 15 -6 14 -5 15 5 6 10 -10 9 -15 -1 -28z
m55 25 c3 -5 1 -10 -4 -10 -6 0 -11 5 -11 10 0 6 2 10 4 10 3 0 8 -4 11 -10z
m31 -5 c-8 -21 26 -16 36 5 6 11 7 10 5 -4 -2 -18 -32 -30 -48 -20 -8 5 -1 34
8 34 3 0 2 -7 -1 -15z m104 8 c0 -1 -8 -7 -18 -12 -13 -7 -19 -6 -19 2 0 7 9
13 19 13 10 0 18 -1 18 -3z m105 -11 c-3 -3 -11 0 -18 7 -9 10 -8 11 6 5 10
-3 15 -9 12 -12z m201 -14 c-9 -12 -16 -17 -16 -10 0 8 -5 10 -12 6 -7 -4 -8
-3 -4 5 4 6 12 9 17 6 5 -4 12 1 15 10 4 9 9 14 11 11 3 -3 -2 -15 -11 -28z
m87 15 c-5 -12 -3 -14 7 -8 9 6 11 4 5 -4 -5 -9 -11 -9 -17 -3 -6 6 -7 15 -4
21 11 17 16 13 9 -6z m-873 -16 c0 -2 -8 -11 -18 -20 -15 -14 -19 -15 -19 -2
0 8 4 12 8 9 4 -2 10 0 14 6 6 10 15 14 15 7z m55 -7 c-3 -5 -12 -10 -18 -10
-7 0 -6 4 3 10 19 12 23 12 15 0z m1548 -21 c3 -9 2 -21 -2 -25 -9 -13 -39
-16 -46 -4 -6 10 6 14 35 11 12 -1 11 1 -2 12 -22 17 -23 24 -4 24 8 0 17 -8
19 -18z m-1429 -22 c-6 -22 -6 -22 10 -2 10 12 15 14 14 6 -4 -17 -34 -51 -47
-51 -5 0 -14 7 -21 15 -7 8 -8 15 -3 15 5 0 16 11 23 25 15 29 34 23 24 -8z
m-164 19 c0 -2 -8 -10 -17 -17 -16 -13 -17 -12 -4 4 13 16 21 21 21 13z m80
-3 c0 -5 -4 -14 -9 -22 -7 -10 -12 -11 -27 -1 -17 10 -17 11 -1 6 11 -3 20 0
23 9 6 16 14 20 14 8z m-70 -23 c0 -5 -5 -10 -11 -10 -5 0 -7 5 -4 10 3 6 8
10 11 10 2 0 4 -4 4 -10z m240 0 c3 0 -3 -5 -13 -11 -18 -10 -37 -5 -37 12 0
7 12 7 50 -1z m-210 -18 c0 -4 -10 -9 -22 -9 -18 -2 -20 0 -8 7 18 12 30 13
30 2z m-31 -28 c3 -4 -1 -4 -9 -2 -8 3 -23 1 -32 -4 -13 -6 -16 -5 -12 6 5 14
40 14 53 0z m-68 -51 c-12 -20 -14 -14 -5 12 4 9 9 14 11 11 3 -2 0 -13 -6
-23z m-19 -85 c-6 -6 -12 -5 -17 3 -5 8 -4 10 3 5 8 -5 12 1 13 16 1 18 2 19
6 4 3 -10 0 -23 -5 -28z m-17 -18 c13 -6 15 -9 5 -9 -8 0 -22 4 -30 9 -18 12
-2 12 25 0z m1791 -30 c29 -11 31 -26 6 -39 -24 -13 -22 -57 3 -54 11 1 14 -2
8 -8 -12 -12 -43 -1 -43 14 0 6 -8 19 -17 29 -12 13 -13 18 -4 16 7 -2 16 3
18 10 3 7 1 12 -4 11 -20 -3 -34 2 -28 11 3 6 1 10 -4 10 -6 0 -3 8 7 18 14
15 19 16 25 5 5 -8 20 -18 33 -23z m-1816 16 c0 -2 -8 -10 -17 -17 -16 -13
-17 -12 -4 4 13 16 21 21 21 13z m-10 -71 c0 -5 -5 -3 -10 5 -5 8 -10 20 -10
25 0 6 5 3 10 -5 5 -8 10 -19 10 -25z m-3 -42 c2 -6 -1 -14 -6 -18 -7 -3 -8 0
-5 9 5 12 0 14 -23 10 -19 -3 -24 -2 -14 5 17 11 44 8 48 -6z m80 2 c0 -8 -4
-15 -9 -15 -4 0 -8 7 -8 15 0 8 4 15 8 15 5 0 9 -7 9 -15z m-118 -59 c-3 -3
-11 5 -18 17 -13 21 -12 21 5 5 10 -10 16 -20 13 -22z m-15 -11 c3 -8 1 -15
-4 -15 -6 0 -10 7 -10 15 0 8 2 15 4 15 2 0 6 -7 10 -15z m-25 -29 c-3 -3 -11
5 -18 17 -13 21 -12 21 5 5 10 -10 16 -20 13 -22z m98 19 c-3 -6 1 -12 8 -12
8 0 11 7 7 16 -5 14 -4 14 12 2 13 -11 14 -16 4 -22 -6 -4 -15 -6 -19 -3 -4 2
-10 0 -14 -6 -4 -6 -11 -8 -16 -5 -20 13 -30 -7 -14 -25 17 -19 13 -40 -6 -40
-6 0 -8 4 -5 9 3 5 -1 14 -9 21 -12 10 -16 9 -21 -5 -5 -13 -9 -14 -15 -3 -7
10 -9 9 -9 -3 0 -13 -8 -16 -35 -14 -23 1 -36 -3 -40 -14 -6 -14 -8 -14 -18
-1 -7 9 -19 15 -27 15 -24 -2 -32 6 -21 19 6 7 6 17 1 26 -6 8 -10 12 -11 8
-1 -5 -3 -12 -4 -18 -1 -5 -3 -15 -4 -20 0 -6 -12 -8 -26 -6 -13 3 -27 1 -30
-4 -3 -5 -14 -8 -25 -7 -10 1 -17 4 -14 7 3 3 9 4 12 3 14 -3 42 18 37 28 -4
5 -1 9 5 9 6 0 8 5 5 10 -3 6 -1 10 5 10 7 0 9 -8 5 -19 -3 -11 -1 -22 5 -26
6 -4 9 -3 8 2 -2 4 5 19 15 33 9 13 17 19 17 12 0 -7 4 -11 9 -7 5 3 13 0 17
-6 4 -8 3 -9 -4 -5 -13 8 -16 -6 -5 -18 4 -4 16 3 26 16 13 16 17 18 13 6 -6
-22 10 -33 18 -13 3 8 12 15 21 15 8 0 15 4 15 9 0 5 -8 7 -19 4 -10 -3 -21
-1 -24 4 -14 23 44 3 68 -23 23 -26 25 -27 20 -6 -6 22 1 27 34 22 12 -1 12 1
3 13 -15 17 -8 25 24 25 16 0 23 -5 21 -13z m-339 -20 c-3 -3 -9 2 -12 12 -6
14 -5 15 5 6 7 -7 10 -15 7 -18z m37 15 c3 -6 -1 -7 -9 -4 -18 7 -21 14 -7 14
6 0 13 -4 16 -10z m45 -11 c0 -6 -4 -7 -10 -4 -5 3 -10 11 -10 16 0 6 5 7 10
4 6 -3 10 -11 10 -16z m62 14 c-6 -2 -9 -10 -6 -15 4 -7 2 -8 -5 -4 -13 9 -5
26 12 25 9 0 8 -2 -1 -6z m1896 -18 c-3 -3 -9 2 -12 12 -6 14 -5 15 5 6 7 -7
10 -15 7 -18z m-118 -6 c0 -5 -4 -9 -10 -9 -5 0 -10 5 -10 11 0 5 -5 7 -12 3
-7 -4 -8 -3 -4 4 7 12 36 5 36 -9z m97 -11 c-3 -8 -6 -5 -6 6 -1 11 2 17 5 13
3 -3 4 -12 1 -19z m-2097 -39 c0 -5 -6 -9 -13 -9 -8 0 -14 6 -14 14 0 8 6 12
14 9 7 -3 13 -9 13 -14z"/>
<path d="M5335 3510 c1 -17 6 -34 10 -38 5 -4 6 0 2 9 -3 9 -1 21 4 26 6 6 5
14 -4 22 -12 9 -14 6 -12 -19z"/>
<path d="M4708 3486 c-11 -8 -14 -17 -7 -27 8 -13 14 -5 9 16 -1 6 2 7 6 2 4
-4 9 -18 11 -30 3 -18 1 -19 -8 -7 -9 13 -10 12 -5 -3 3 -10 2 -16 -2 -13 -4
2 -15 -2 -25 -9 -12 -8 -14 -15 -7 -20 5 -3 7 -12 4 -18 -4 -7 5 0 18 14 35
35 51 66 38 74 -6 4 -8 10 -5 15 9 15 -9 19 -27 6z m-5 -81 c-3 -9 -8 -14 -10
-11 -3 3 -2 9 2 15 9 16 15 13 8 -4z"/>
<path d="M4665 3470 c3 -5 -1 -22 -9 -38 -21 -41 -6 -50 17 -10 10 18 15 24
12 13 -5 -15 -3 -17 5 -9 13 13 -3 54 -21 54 -6 0 -7 -4 -4 -10z"/>
<path d="M4748 3417 c-7 -16 1 -37 14 -37 7 0 6 5 -1 14 -9 11 -9 15 1 18 8 3
9 6 1 11 -6 4 -13 1 -15 -6z"/>
<path d="M4789 3303 c-13 -16 -12 -17 4 -4 9 7 17 15 17 17 0 8 -8 3 -21 -13z"/>
<path d="M4660 3262 c0 -4 9 -13 20 -20 11 -7 20 -9 20 -4 0 4 -9 13 -20 20
-11 7 -20 9 -20 4z"/>
<path d="M4595 3234 c12 -19 12 -23 -1 -28 -8 -3 -12 -11 -8 -17 5 -8 13 -4
25 12 11 15 14 28 8 35 -5 6 -7 13 -4 15 2 3 -5 5 -15 5 -18 0 -18 -2 -5 -22z"/>
<path d="M4637 3163 c-11 -11 -8 -21 9 -27 14 -5 15 -4 5 8 -9 11 -9 15 1 19
7 3 8 6 2 6 -6 1 -14 -2 -17 -6z"/>
<path d="M4562 3138 c-16 -16 -15 -28 3 -28 8 0 15 9 15 20 0 23 -2 24 -18 8z"/>
<path d="M4613 3084 c-3 -8 -2 -19 3 -24 5 -5 9 1 9 16 0 28 -3 30 -12 8z"/>
<path d="M4600 3040 c8 -5 20 -10 25 -10 6 0 3 5 -5 10 -8 5 -19 10 -25 10 -5
0 -3 -5 5 -10z"/>
<path d="M4550 2966 c0 -2 7 -7 16 -10 8 -3 12 -2 9 4 -6 10 -25 14 -25 6z"/>
<path d="M4595 2959 c-4 -6 -5 -12 -2 -15 2 -3 7 2 10 11 7 17 1 20 -8 4z"/>
<path d="M4576 2893 c-6 -14 -5 -15 5 -6 7 7 10 15 7 18 -3 3 -9 -2 -12 -12z"/>
<path d="M4495 2860 c-4 -6 -5 -10 -3 -11 25 -6 38 -6 38 1 0 12 -29 20 -35
10z"/>
<path d="M5380 3326 c0 -2 8 -10 18 -17 15 -13 16 -12 3 4 -13 16 -21 21 -21
13z"/>
<path d="M5439 3204 c5 -3 8 -17 6 -32 -2 -15 -2 -21 1 -14 5 10 9 10 22 0 11
-8 9 -4 -3 11 -11 13 -19 26 -17 29 2 4 -1 7 -7 9 -7 1 -7 -1 -2 -3z"/>
<path d="M5485 3070 c10 -11 14 -20 10 -20 -4 0 -1 -8 8 -18 10 -10 14 -22 10
-27 -5 -4 -2 -5 5 -1 10 6 10 11 1 22 -6 8 -9 14 -5 14 4 0 -1 11 -10 25 -9
14 -21 25 -27 25 -5 0 -2 -9 8 -20z"/>
<path d="M5638 2672 c8 -5 13 -12 13 -16 -3 -20 0 -26 10 -20 8 5 8 9 -1 14
-6 4 -11 11 -10 16 1 5 -4 10 -12 12 -11 3 -11 2 0 -6z"/>
<path d="M4360 2241 c-7 -13 -7 -22 0 -26 11 -7 11 -8 14 23 3 27 0 28 -14 3z"/>
<path d="M5867 2024 c-3 -6 -2 -16 4 -24 7 -13 9 -13 9 0 1 12 3 11 11 -3 8
-13 7 -22 -1 -32 -8 -9 -8 -15 0 -20 6 -4 10 -3 9 2 -4 16 13 43 24 36 6 -4 7
-1 3 6 -5 7 -10 10 -13 7 -3 -3 -13 4 -23 16 -9 12 -19 17 -23 12z"/>
<path d="M4060 1835 c0 -2 8 -9 18 -14 14 -7 19 -6 19 3 0 6 -9 13 -19 13 -10
1 -18 0 -18 -2z"/>
<path d="M4037 1803 c-3 -4 7 -17 22 -27 l26 -20 -20 25 c-11 13 -21 25 -21
27 -1 2 -4 0 -7 -5z"/>
<path d="M3970 1792 c-8 -3 -19 -11 -23 -19 -6 -11 -12 -11 -22 -3 -9 8 -15 8
-20 0 -3 -6 -10 -8 -15 -5 -5 3 -11 1 -15 -4 -3 -6 3 -8 15 -6 11 2 22 -1 25
-6 4 -5 12 -6 18 -2 7 4 19 8 27 8 8 0 23 5 33 11 15 8 16 13 5 21 -7 6 -20 8
-28 5z m15 -21 c-9 -8 -36 -10 -30 -2 2 4 11 8 20 8 8 0 13 -3 10 -6z"/>
<path d="M5042 4298 c-8 -8 -9 -15 -1 -25 7 -7 8 -13 4 -13 -4 0 -2 -7 5 -15
7 -8 9 -15 4 -15 -4 0 2 -11 15 -23 19 -21 25 -35 35 -84 1 -7 10 -19 21 -26
11 -9 15 -19 10 -27 -5 -8 -4 -11 2 -7 6 4 14 0 17 -9 3 -8 2 -12 -3 -9 -5 3
-13 1 -16 -5 -4 -6 -3 -10 2 -9 30 5 35 -2 18 -21 -18 -20 -14 -35 8 -35 7 0
12 -7 12 -15 1 -22 15 -41 26 -35 15 10 10 -12 -6 -25 -15 -12 -11 -35 5 -25
15 9 22 -14 10 -34 -7 -14 -7 -22 1 -26 6 -4 8 -13 5 -20 -2 -7 2 -16 10 -19
8 -3 13 -9 12 -13 -1 -4 2 -18 6 -31 5 -16 13 -21 23 -17 11 4 13 2 7 -7 -15
-21 -11 -63 5 -60 12 3 12 0 2 -12 -15 -18 -5 -40 12 -29 7 4 19 6 29 5 9 -2
19 2 23 9 5 8 1 9 -14 4 -16 -5 -20 -3 -15 9 3 9 10 13 16 10 11 -7 -14 41
-36 70 -8 10 -19 15 -25 12 -5 -4 -13 -1 -17 5 -5 8 -3 9 5 4 10 -6 11 -3 3
12 -9 15 -8 20 4 20 8 0 13 -6 10 -14 -3 -7 -1 -13 4 -13 13 0 13 37 0 45 -5
3 -10 1 -10 -5 0 -6 -5 -8 -10 -5 -8 5 -7 11 1 21 7 9 8 14 1 14 -6 0 -12 -6
-15 -12 -2 -7 -7 -10 -11 -7 -3 3 0 14 8 24 11 16 16 17 29 7 13 -11 15 -10
12 5 -3 20 -22 19 -47 -4 -15 -14 -17 -13 -15 6 1 12 8 21 18 21 9 0 20 8 24
18 5 14 4 15 -6 5 -19 -19 -34 -16 -18 4 12 14 12 16 0 8 -11 -6 -13 -4 -8 8
4 10 2 14 -6 11 -7 -2 -13 6 -13 21 -2 22 0 24 14 13 9 -7 3 4 -12 25 -25 32
-27 39 -15 55 11 14 9 13 -9 -2 -23 -20 -31 -10 -9 13 7 9 7 11 1 8 -22 -13
-23 21 -1 36 18 13 20 17 9 29 -11 11 -12 10 -7 -4 4 -10 3 -18 -3 -18 -13 0
-22 25 -14 36 4 5 0 2 -9 -8 -9 -9 -19 -14 -23 -11 -3 4 3 16 13 27 14 15 17
26 11 36 -5 8 -12 11 -17 7 -4 -5 -1 -12 7 -17 8 -6 13 -10 10 -11 -3 0 -15
-2 -27 -5 -13 -2 -23 1 -23 6 0 6 5 10 12 10 6 0 3 7 -8 15 -14 11 -15 14 -3
9 10 -3 20 0 25 7 10 17 -22 38 -49 32 -22 -4 -22 -4 -2 12 16 13 17 17 6 24
-8 5 -21 6 -30 3 -14 -5 -14 -3 -2 11 10 13 18 14 35 6 20 -10 20 -10 2 5 -13
11 -23 12 -31 6 -7 -5 -15 -7 -18 -3 -4 3 1 12 11 19 9 7 12 14 7 14 -6 0 -16
-5 -23 -12z m29 -71 c-10 -9 -11 -8 -5 6 3 10 9 15 12 12 3 -3 0 -11 -7 -18z
m50 -31 c5 3 9 0 9 -6 0 -7 -7 -9 -16 -6 -9 3 -18 6 -20 6 -3 0 -2 5 2 12 6 9
9 9 12 0 2 -7 8 -10 13 -6z m14 -76 c-3 -5 -12 -10 -18 -10 -7 0 -6 4 3 10 19
12 23 12 15 0z m30 -40 c3 -5 1 -10 -4 -10 -6 0 -11 5 -11 10 0 6 2 10 4 10 3
0 8 -4 11 -10z m36 -111 c7 -13 6 -19 -1 -19 -6 0 -8 -5 -4 -12 4 -7 3 -8 -5
-4 -6 4 -9 12 -5 17 8 13 -16 40 -29 32 -6 -3 -7 -1 -3 5 9 15 34 4 47 -19z
m20 -86 c12 -16 12 -17 -2 -6 -9 7 -20 9 -24 5 -5 -4 -5 -1 -1 6 9 16 11 15
27 -5z m99 -223 c0 -4 -8 -16 -17 -27 -10 -10 -14 -13 -8 -5 6 10 4 18 -10 28
-11 9 -14 14 -6 14 10 0 11 3 2 13 -6 8 -8 17 -4 21 8 7 43 -29 43 -44z"/>
<path d="M5113 4295 c0 -8 4 -12 9 -9 5 3 6 10 3 15 -9 13 -12 11 -12 -6z"/>
<path d="M2096 4282 c-3 -5 1 -9 9 -9 8 0 12 4 9 9 -3 4 -7 8 -9 8 -2 0 -6 -4
-9 -8z"/>
<path d="M5135 4240 c2 -27 10 -33 12 -10 1 11 -2 22 -6 24 -4 3 -7 -4 -6 -14z"/>
<path d="M2157 4223 c-10 -9 -9 -23 1 -23 5 0 9 7 9 15 0 17 -1 18 -10 8z"/>
<path d="M2190 4161 c0 -6 4 -13 10 -16 6 -3 7 1 4 9 -7 18 -14 21 -14 7z"/>
<path d="M2235 4140 c-17 -8 -17 -9 7 -7 15 1 24 5 22 9 -3 4 -6 8 -7 7 -1 0
-11 -4 -22 -9z"/>
<path d="M2250 4110 c14 -9 7 -14 -13 -11 -5 1 -6 -3 -2 -9 5 -8 11 -8 21 1
15 12 10 29 -9 29 -7 0 -6 -4 3 -10z"/>
<path d="M2265 4080 c-3 -5 -1 -10 4 -10 6 0 11 5 11 10 0 6 -2 10 -4 10 -3 0
-8 -4 -11 -10z"/>
<path d="M2290 4066 c0 -3 9 -10 20 -16 11 -6 20 -8 20 -6 0 3 -9 10 -20 16
-11 6 -20 8 -20 6z"/>
<path d="M2260 4039 c12 -21 18 -23 38 -10 11 6 10 10 -5 16 -36 16 -43 14
-33 -6z m25 1 c3 -5 1 -10 -4 -10 -6 0 -11 5 -11 10 0 6 2 10 4 10 3 0 8 -4
11 -10z"/>
<path d="M5181 4056 c2 -2 15 -9 29 -15 24 -11 24 -11 6 3 -16 13 -49 24 -35
12z"/>
<path d="M5210 4000 c0 -5 5 -10 10 -10 6 0 10 5 10 10 0 6 -4 10 -10 10 -5 0
-10 -4 -10 -10z"/>
<path d="M5246 3958 c3 -5 10 -6 15 -3 13 9 11 12 -6 12 -8 0 -12 -4 -9 -9z"/>
<path d="M5250 3921 c0 -11 4 -22 9 -25 4 -3 6 6 3 19 -5 30 -12 33 -12 6z"/>
<path d="M2400 3900 c-12 -7 -10 -9 7 -7 12 0 19 5 17 9 -6 10 -6 10 -24 -2z"/>
<path d="M5290 3860 c0 -5 5 -10 11 -10 5 0 7 5 4 10 -3 6 -8 10 -11 10 -2 0
-4 -4 -4 -10z"/>
<path d="M2425 3820 c-3 -6 1 -7 9 -4 18 7 21 14 7 14 -6 0 -13 -4 -16 -10z"/>
<path d="M2390 3809 c0 -5 5 -7 10 -4 6 3 10 8 10 11 0 2 -4 4 -10 4 -5 0 -10
-5 -10 -11z"/>
<path d="M5316 3787 c3 -10 9 -15 12 -12 3 3 0 11 -7 18 -10 9 -11 8 -5 -6z"/>
<path d="M2364 3679 c-17 -19 -17 -22 -3 -30 10 -5 15 -19 14 -33 -2 -15 3
-27 12 -31 23 -8 28 2 15 30 -14 31 -15 45 -3 45 5 0 12 -10 14 -22 l4 -23 2
23 c0 12 -6 25 -15 29 -11 4 -12 8 -4 13 8 5 7 9 -3 13 -8 3 -23 -3 -33 -14z
m21 -6 c-2 -10 -4 -19 -4 -21 -1 -2 -6 0 -11 3 -8 5 -7 11 1 21 15 18 18 18
14 -3z m15 -78 c0 -5 -5 -3 -10 5 -5 8 -10 20 -10 25 0 6 5 3 10 -5 5 -8 10
-19 10 -25z"/>
<path d="M5366 3658 c3 -5 10 -6 15 -3 13 9 11 12 -6 12 -8 0 -12 -4 -9 -9z"/>
<path d="M5350 3602 c0 -4 9 -8 20 -9 11 -1 20 2 20 5 0 4 -9 8 -20 9 -11 1
-20 -2 -20 -5z"/>
<path d="M2361 3566 c-9 -11 -10 -16 -2 -16 7 0 5 -9 -5 -25 -13 -19 -14 -28
-5 -39 10 -11 7 -18 -11 -30 -12 -9 -18 -16 -13 -16 6 0 3 -4 -5 -10 -8 -5
-11 -12 -7 -17 5 -4 11 -3 15 2 4 6 12 11 17 12 6 1 29 19 50 39 37 35 32 40
-7 6 -21 -18 -23 -5 -4 20 7 10 17 14 21 10 5 -4 5 -2 1 5 -4 7 -14 9 -24 6
-15 -6 -15 -5 -3 10 7 9 21 17 30 18 13 0 14 2 1 6 -8 4 -20 13 -26 21 -9 12
-12 12 -23 -2z m22 -10 c3 -8 -2 -20 -11 -27 -14 -11 -15 -11 -5 0 6 7 9 20 6
27 -3 8 -3 14 0 14 3 0 7 -6 10 -14z m-12 -59 c-1 -12 -15 -9 -19 4 -3 6 1 10
8 8 6 -3 11 -8 11 -12z m-13 -51 c-7 -8 -15 -12 -17 -11 -5 6 10 25 20 25 5 0
4 -6 -3 -14z"/>
<path d="M2411 3567 c2 -1 14 -10 26 -20 16 -14 23 -15 29 -6 4 7 3 10 -3 6
-6 -4 -16 0 -23 8 -7 8 -17 15 -23 15 -6 0 -8 -1 -6 -3z"/>
<path d="M5390 3541 c0 -6 4 -12 8 -15 5 -3 9 1 9 9 0 8 -4 15 -9 15 -4 0 -8
-4 -8 -9z"/>
<path d="M2415 3520 c3 -5 8 -10 11 -10 2 0 4 5 4 10 0 6 -5 10 -11 10 -5 0
-7 -4 -4 -10z"/>
<path d="M5430 3479 c0 -5 5 -7 10 -4 6 3 10 8 10 11 0 2 -4 4 -10 4 -5 0 -10
-5 -10 -11z"/>
<path d="M5400 3461 c-8 -6 -17 -8 -21 -5 -4 2 -10 0 -13 -5 -4 -5 -2 -13 4
-16 8 -5 7 -11 -1 -21 -6 -8 -10 -14 -8 -15 43 -8 50 -8 46 3 -2 7 0 25 4 41
4 15 7 27 6 27 -1 0 -9 -4 -17 -9z m-2 -36 c-1 -12 -8 -22 -15 -22 -8 0 -9 4
-3 12 6 7 6 15 -1 22 -6 6 -5 10 5 10 10 0 15 -9 14 -22z"/>
<path d="M2396 3438 c3 -4 0 -8 -7 -8 -7 0 -9 -3 -6 -6 4 -4 12 -2 19 3 7 6
23 9 35 8 13 -1 20 1 17 4 -9 9 -63 8 -58 -1z"/>
<path d="M5428 3413 c7 -3 16 -2 19 1 4 3 -2 6 -13 5 -11 0 -14 -3 -6 -6z"/>
<path d="M5464 3398 l-19 -23 23 19 c21 18 27 26 19 26 -2 0 -12 -10 -23 -22z"/>
<path d="M2299 3353 c-13 -16 -12 -17 4 -4 9 7 17 15 17 17 0 8 -8 3 -21 -13z"/>
<path d="M2351 3367 c2 -1 13 -9 24 -17 19 -14 19 -14 6 3 -7 9 -18 17 -24 17
-6 0 -8 -1 -6 -3z"/>
<path d="M2350 3340 c0 -5 5 -10 11 -10 5 0 7 5 4 10 -3 6 -8 10 -11 10 -2 0
-4 -4 -4 -10z"/>
<path d="M2265 3301 c3 -5 1 -12 -5 -16 -14 -9 -2 -25 14 -19 17 6 16 32 -1
38 -8 3 -11 2 -8 -3z"/>
<path d="M2210 3239 c0 -5 5 -7 10 -4 6 3 10 8 10 11 0 2 -4 4 -10 4 -5 0 -10
-5 -10 -11z"/>
<path d="M2250 3139 c0 -5 5 -7 10 -4 6 3 10 8 10 11 0 2 -4 4 -10 4 -5 0 -10
-5 -10 -11z"/>
<path d="M2001 3107 c-16 -16 -14 -32 2 -18 8 6 17 8 20 4 4 -3 13 -1 20 5 8
7 16 9 19 6 3 -3 8 -1 11 3 8 13 -60 12 -72 0z"/>
<path d="M2110 3049 c12 -8 8 -10 -15 -8 -16 0 -35 1 -41 0 -7 -1 -10 -62 -10
-196 1 -111 -2 -195 -7 -195 -5 0 -4 -6 2 -13 6 -8 8 -17 4 -20 -5 -6 39 -9
145 -10 12 0 22 -4 22 -8 0 -5 5 -9 11 -9 5 0 7 6 3 13 -6 10 -4 10 7 0 16
-16 33 -17 23 -1 -4 7 -3 8 4 4 6 -4 9 -13 6 -20 -3 -9 1 -13 13 -13 10 1 17
-4 15 -11 -1 -8 3 -12 10 -9 7 2 11 13 10 23 -2 10 -1 16 3 12 6 -5 12 -28 14
-51 1 -5 5 -6 10 -3 11 7 9 25 -3 44 -5 8 -3 19 3 25 9 9 10 7 5 -8 -7 -18 -6
-19 12 -5 17 13 18 13 7 0 -19 -25 -19 -27 7 -50 14 -12 19 -19 13 -15 -7 3
-13 1 -13 -6 0 -8 -4 -8 -15 1 -8 7 -15 9 -15 4 0 -5 -7 0 -15 10 -8 11 -15
15 -15 9 0 -10 -7 -10 -39 -4 -2 1 2 8 9 16 8 9 9 15 2 15 -6 0 -13 -4 -16 -8
-6 -10 -42 -9 -52 1 -4 4 3 7 15 7 12 0 19 4 16 10 -4 7 -13 6 -27 -1 -12 -6
-18 -7 -14 -1 3 5 -1 12 -9 16 -8 3 -17 1 -20 -4 -4 -6 -11 -10 -16 -10 -6 0
-7 5 -3 12 5 7 3 8 -5 3 -9 -5 -10 -10 -2 -18 7 -7 15 -6 25 2 13 11 15 9 11
-18 -3 -29 -2 -30 17 -20 17 9 20 9 15 -4 -4 -11 0 -13 14 -10 11 3 19 0 19
-6 0 -7 -4 -9 -10 -6 -15 9 -12 -1 4 -14 12 -10 14 -8 12 14 -2 16 1 24 8 22
6 -2 11 -15 10 -29 -1 -20 3 -25 14 -20 11 4 12 7 4 10 -17 5 -15 19 3 19 21
0 27 -25 7 -36 -9 -6 -12 -10 -7 -10 6 0 19 6 29 14 11 8 14 15 8 15 -7 0 -12
4 -12 8 0 5 7 9 15 9 8 0 15 -4 15 -9 0 -5 9 -7 19 -3 11 3 22 1 26 -5 3 -5
11 -10 18 -10 6 0 2 6 -9 14 -18 14 -18 15 4 13 12 -1 22 -5 22 -9 0 -4 13 -5
30 -3 16 2 32 -1 35 -6 4 -5 16 -9 28 -9 21 1 21 1 -3 13 -14 7 -26 19 -28 27
-2 13 -1 13 10 0 15 -17 43 -26 33 -10 -3 5 2 10 13 10 10 0 19 7 19 15 0 8
-4 15 -9 15 -4 0 -8 5 -8 10 0 7 7 7 21 -1 17 -9 19 -13 8 -20 -8 -5 -12 -9
-9 -10 3 0 13 -2 23 -4 12 -2 17 1 13 10 -2 7 1 21 8 30 11 15 14 14 40 -6
l28 -22 -6 24 c-5 19 -3 18 8 -5 7 -16 16 -24 20 -18 3 6 18 9 32 6 14 -3 23
-1 20 4 -3 5 0 9 7 9 7 0 20 4 30 8 10 4 17 3 17 -4 0 -6 5 -11 11 -11 5 0 7
6 3 13 -4 6 3 3 16 -8 17 -15 24 -17 27 -7 4 10 8 8 18 -5 16 -22 8 -38 -11
-22 -12 10 -13 9 -8 -5 3 -9 1 -16 -6 -16 -6 0 -9 4 -6 8 3 5 -1 9 -9 9 -19 0
-26 -20 -13 -38 8 -11 9 -10 4 4 -3 9 -1 17 4 17 6 0 10 -5 10 -10 0 -6 11 -3
24 5 15 10 27 12 30 6 4 -5 -3 -13 -15 -16 -11 -4 -18 -9 -16 -12 3 -2 15 1
28 7 19 11 21 10 16 -4 -3 -8 -3 -18 2 -20 11 -7 10 26 -1 41 -5 7 -5 14 1 17
8 6 27 -30 24 -45 -1 -3 5 -6 12 -6 12 0 12 3 3 14 -9 11 -9 16 1 23 9 5 10
10 2 14 -6 4 -11 2 -11 -5 0 -7 -7 -4 -15 7 -8 10 -15 15 -15 9 0 -5 -7 1 -16
13 -8 12 -13 26 -9 32 9 14 35 0 35 -20 0 -17 22 -22 36 -8 3 4 13 4 22 1 11
-5 13 -3 7 8 -4 8 -5 11 0 7 4 -4 15 -3 25 2 12 6 23 5 36 -5 14 -10 15 -14 5
-15 -18 0 -6 -13 15 -16 8 -1 13 3 11 9 -2 7 0 20 5 29 7 15 12 16 28 6 19
-12 18 -28 -1 -28 -6 0 -8 4 -4 9 3 5 1 12 -4 15 -5 3 -11 0 -14 -8 -8 -19 20
-29 43 -16 16 9 18 8 14 -5 -4 -10 -2 -15 6 -13 7 2 15 -3 17 -9 3 -7 0 -13
-7 -13 -6 0 -8 5 -4 13 5 7 0 6 -11 -3 -17 -13 -18 -13 -10 0 4 8 5 12 0 8 -4
-4 -16 -3 -27 3 -17 9 -18 8 -9 -8 11 -22 10 -41 -4 -63 -8 -13 -6 -13 8 -2 9
8 22 10 28 6 7 -4 9 -3 6 3 -4 6 0 16 8 23 14 12 19 7 16 -13 -1 -5 3 -6 8 -2
6 3 8 13 5 23 -4 11 2 9 16 -8 l22 -25 -16 27 c-18 31 -20 38 -8 38 8 0 35
-46 36 -62 1 -3 4 -9 8 -13 9 -9 5 17 -6 33 -4 7 -5 16 -1 20 4 4 10 1 12 -6
4 -10 8 -10 19 -1 11 9 18 8 31 -2 11 -10 14 -10 9 -1 -4 7 -1 12 8 12 10 0
13 -6 10 -17 -5 -14 -4 -15 4 -4 6 8 8 20 5 27 -5 15 -24 14 -35 -1 -5 -6 -8
-6 -8 1 0 7 -7 14 -14 17 -10 4 -13 1 -9 -9 3 -7 0 -14 -7 -14 -6 0 -9 4 -6 8
3 5 -1 9 -9 9 -8 0 -15 -5 -15 -11 0 -5 -6 -2 -13 9 -9 11 -19 15 -27 10 -9
-5 -11 -4 -6 3 4 7 2 12 -3 12 -6 0 -11 5 -11 12 0 9 3 9 12 0 21 -21 32 -13
12 10 l-19 21 28 -18 c21 -13 25 -20 15 -26 -7 -5 -11 -9 -8 -10 3 0 13 -2 23
-4 12 -2 17 1 13 10 -2 7 1 20 7 29 11 15 14 15 35 -4 12 -11 22 -25 22 -31 0
-6 5 -7 10 -4 7 4 6 13 -1 26 -6 12 -8 23 -5 27 3 3 6 0 6 -7 0 -8 6 -9 18 -3
9 5 23 7 30 5 8 -3 10 2 6 14 -5 14 -4 15 4 3 12 -16 6 -31 -11 -29 -23 3 -37
-1 -37 -10 0 -13 41 -10 59 3 11 8 13 8 8 0 -4 -7 1 -18 10 -25 14 -12 15 -11
9 7 -5 15 -2 24 9 28 9 3 14 2 11 -2 -3 -4 4 -13 15 -20 10 -7 19 -8 19 -3 0
6 -5 13 -10 16 -6 4 -8 11 -5 16 10 16 33 10 40 -11 4 -11 11 -18 16 -15 5 4
2 18 -7 33 -15 26 -15 26 2 4 16 -21 18 -22 36 -5 18 16 19 16 12 0 -3 -10 -3
-17 2 -16 22 4 35 -2 28 -12 -4 -8 -9 -7 -16 2 -8 11 -9 11 -5 -2 4 -13 -1
-16 -24 -14 -16 1 -27 -1 -24 -5 2 -3 -2 -7 -10 -7 -8 0 -12 5 -8 10 3 5 -4 4
-14 -2 -11 -6 -22 -9 -24 -8 -3 1 5 -8 16 -19 15 -17 23 -19 34 -10 11 9 13 6
7 -14 -6 -22 -5 -22 11 5 10 17 26 31 37 33 11 2 15 -1 11 -7 -3 -6 -3 -11 2
-12 4 0 18 -2 30 -3 12 -1 20 1 17 6 -4 5 -12 7 -19 4 -7 -2 -16 2 -19 10 -8
21 -8 21 9 21 8 0 15 -4 15 -9 0 -4 5 -8 12 -8 9 0 9 3 0 12 -9 9 -5 17 14 35
25 23 28 51 5 46 -6 -2 -11 4 -11 13 0 9 5 12 13 8 7 -5 6 0 -3 11 -13 17 -13
18 1 13 13 -5 16 -2 12 13 -4 12 -12 17 -27 15 -21 -3 -56 13 -56 26 0 4 9 10
20 13 11 4 18 11 15 16 -4 5 -15 5 -28 -2 -20 -9 -20 -9 2 9 16 13 20 21 12
26 -6 4 -11 3 -11 -2 0 -6 -8 -13 -17 -16 -13 -5 -11 0 6 18 14 15 19 26 13
26 -6 0 -14 -4 -17 -10 -10 -16 -25 -11 -24 8 0 10 3 12 6 5 3 -9 11 -8 29 4
20 13 24 13 22 2 -2 -9 4 -13 15 -11 9 2 17 -2 17 -8 0 -5 -7 -10 -16 -10 -8
0 -12 -5 -9 -11 4 -6 9 -8 12 -5 3 3 14 1 25 -5 18 -10 18 -8 8 10 -6 12 -8
27 -4 33 4 7 3 8 -4 4 -7 -4 -12 -2 -12 3 0 6 4 11 10 11 5 0 -2 12 -15 26
-13 14 -29 23 -34 19 -6 -3 -11 -2 -11 4 0 5 3 11 8 14 4 2 2 3 -4 1 -6 -1
-16 2 -21 7 -6 6 -10 4 -10 -5 0 -8 4 -13 9 -10 4 3 8 1 8 -5 0 -5 -6 -12 -12
-14 -10 -4 -10 -6 0 -6 7 -1 11 -5 8 -10 -4 -5 8 -7 26 -4 18 3 29 1 25 -3
-13 -13 -67 -14 -68 -1 -1 7 -3 52 -4 100 -2 49 -5 90 -7 92 -2 3 -320 5 -706
5 -413 1 -704 5 -708 11 -3 5 -11 9 -17 9 -7 0 -6 -4 3 -11z m1500 -184 c0 -7
-30 -13 -34 -7 -3 4 4 9 15 9 10 1 19 0 19 -2z m20 -29 c0 -2 -8 -10 -17 -17
-16 -13 -17 -12 -4 4 13 16 21 21 21 13z m-11 -151 c12 2 19 0 16 -6 -10 -15
-38 -10 -65 12 l-25 21 27 -15 c14 -9 36 -14 47 -12z m-41 -21 c2 -1 -4 -4
-13 -8 -9 -3 -13 -2 -10 4 3 6 1 10 -4 10 -6 0 -11 5 -11 11 0 8 6 7 18 -2 9
-7 18 -14 20 -15z m35 -37 c-11 -22 -11 -27 -1 -21 14 9 38 14 38 9 0 -15 -14
-34 -21 -29 -5 3 -6 11 -2 17 4 7 -2 5 -13 -3 -29 -22 -30 -24 -11 -17 9 4 17
3 17 -2 0 -5 -8 -15 -17 -22 -10 -7 -15 -9 -10 -4 4 4 -1 17 -10 27 -13 14
-14 21 -5 30 7 7 12 20 12 29 0 11 7 17 19 16 18 -1 18 -3 4 -30z m-39 9 c-3
-8 -13 -17 -22 -21 -13 -5 -13 -2 3 15 21 24 26 25 19 6z m-1274 -36 c0 -5 -5
-10 -11 -10 -5 0 -7 5 -4 10 3 6 8 10 11 10 2 0 4 -4 4 -10z m130 0 c0 -5 -5
-10 -11 -10 -5 0 -7 5 -4 10 3 6 8 10 11 10 2 0 4 -4 4 -10z m33 -21 c-8 -8
-13 -7 -18 2 -6 8 -4 10 5 4 10 -6 12 -4 6 11 -6 15 -5 17 5 7 9 -10 10 -16 2
-24z m87 21 c0 -5 -5 -10 -11 -10 -5 0 -7 5 -4 10 3 6 8 10 11 10 2 0 4 -4 4
-10z m53 -15 c-7 -21 -12 -19 -10 4 0 11 5 18 9 15 4 -3 5 -11 1 -19z m52 7
c-3 -3 -11 0 -18 7 -9 10 -8 11 6 5 10 -3 15 -9 12 -12z m67 -10 c13 -2 16 2
12 15 -5 15 -4 15 4 3 6 -8 9 -17 6 -21 -9 -15 -46 -4 -55 16 -9 17 -8 18 3 5
7 -8 21 -16 30 -18z m51 13 c-3 -9 -8 -14 -10 -11 -3 3 -2 9 2 15 9 16 15 13
8 -4z m57 5 c0 -5 -5 -10 -11 -10 -5 0 -7 5 -4 10 3 6 8 10 11 10 2 0 4 -4 4
-10z m33 -21 c-8 -8 -13 -7 -18 2 -6 8 -4 10 5 4 10 -6 12 -4 6 11 -6 15 -5
17 5 7 9 -10 10 -16 2 -24z m87 21 c0 -5 -5 -10 -11 -10 -5 0 -7 5 -4 10 3 6
8 10 11 10 2 0 4 -4 4 -10z m34 -5 c6 -18 -29 -41 -39 -25 -4 6 -3 10 2 9 22
-4 32 2 27 16 -4 8 -4 15 -1 15 3 0 7 -7 11 -15z m29 0 c-3 -9 -8 -14 -10 -11
-3 3 -2 9 2 15 9 16 15 13 8 -4z m70 -10 c-7 -21 -12 -19 -10 4 0 11 5 18 9
15 4 -3 5 -11 1 -19z m132 7 c-3 -3 -11 0 -18 7 -9 10 -8 11 6 5 10 -3 15 -9
12 -12z m28 -7 c-7 -21 -12 -19 -10 4 0 11 5 18 9 15 4 -3 5 -11 1 -19z m183
13 c4 -7 3 -8 -4 -4 -7 4 -12 2 -12 -5 0 -7 -3 -10 -6 -6 -6 5 3 27 11 27 2 0
7 -5 11 -12z m-369 -4 c-3 -3 -12 -4 -19 -1 -8 3 -5 6 6 6 11 1 17 -2 13 -5z
m-649 -21 c5 -10 7 -25 4 -33 -5 -13 -3 -13 11 -1 14 11 20 11 33 0 14 -11 15
-10 12 7 -2 11 2 18 10 17 6 -2 12 1 12 6 0 22 30 18 45 -6 10 -14 12 -23 7
-19 -6 3 -12 0 -15 -6 -4 -10 -7 -11 -18 0 -18 16 -32 15 -26 -2 8 -20 -4 -28
-20 -15 -10 9 -13 8 -13 0 0 -7 -5 -9 -12 -4 -12 7 -17 9 -36 12 -12 1 -32 48
-25 55 11 11 22 6 31 -11z m762 7 c0 -5 -4 -10 -10 -10 -5 0 -10 5 -10 10 0 6
5 10 10 10 6 0 10 -4 10 -10z m-965 -20 c3 -5 1 -10 -4 -10 -6 0 -11 5 -11 10
0 6 2 10 4 10 3 0 8 -4 11 -10z m1328 -35 c-3 -9 -8 -14 -10 -11 -3 3 -2 9 2
15 9 16 15 13 8 -4z m-23 -7 c0 -11 -12 -10 -30 2 -12 7 -10 9 8 7 12 0 22 -5
22 -9z m-354 -10 c4 4 2 -1 -5 -10 -18 -23 -27 -23 -27 1 0 14 4 17 12 11 6
-6 15 -6 20 -2z"/>
<path d="M3585 2609 c-4 -6 -5 -12 -2 -15 2 -3 7 2 10 11 7 17 1 20 -8 4z"/>
<path d="M2386 2565 c4 -8 10 -15 15 -15 4 0 6 7 3 15 -4 8 -10 15 -15 15 -4
0 -6 -7 -3 -15z"/>
<path d="M2505 2570 c-4 -6 -3 -16 3 -22 13 -13 23 4 13 21 -7 10 -10 10 -16
1z"/>
<path d="M5556 3052 c-2 -4 -1 -14 4 -22 7 -11 9 -9 7 8 -1 24 -3 26 -11 14z"/>
<path d="M1877 3036 c-4 -10 -13 -16 -21 -13 -20 8 -37 -15 -26 -33 8 -13 11
-13 22 -1 8 9 9 11 1 7 -6 -3 -14 -2 -18 4 -3 5 3 10 13 10 11 0 22 -9 25 -20
3 -11 11 -20 19 -19 10 0 10 2 1 6 -7 2 -13 9 -13 14 0 4 6 6 14 3 8 -3 17 0
21 6 6 9 10 9 17 -1 8 -11 9 -10 4 4 -3 9 -2 17 3 17 15 0 20 -13 11 -29 -6
-13 -4 -17 10 -17 14 0 16 3 8 13 -6 7 -8 13 -4 13 4 0 -1 11 -9 24 -16 24
-52 29 -47 7 1 -6 -2 -11 -7 -11 -5 0 -11 8 -13 18 -3 16 -4 16 -11 -2z m45
-19 c-16 -15 -24 -17 -38 -8 -17 10 -16 11 6 8 14 -1 24 3 23 9 -1 6 5 11 13
11 12 0 11 -4 -4 -20z"/>
<path d="M1080 3005 c0 -8 2 -15 4 -15 2 0 6 7 10 15 3 8 1 15 -4 15 -6 0 -10
-7 -10 -15z"/>
<path d="M1770 3006 c-5 -5 -10 -6 -10 -2 0 5 -7 3 -15 -4 -12 -10 -15 -10
-15 1 0 8 -6 5 -15 -7 -15 -19 -15 -19 -8 0 5 16 3 18 -11 13 -10 -4 -19 -7
-21 -7 -2 0 7 -11 21 -25 14 -14 22 -30 19 -35 -3 -6 -1 -10 5 -10 7 0 9 8 5
23 -6 18 -5 20 6 10 7 -7 17 -13 23 -13 5 0 2 6 -9 13 -12 10 -14 16 -7 21 7
4 12 2 12 -3 0 -6 7 -11 16 -11 8 0 12 -4 9 -10 -3 -5 -2 -10 4 -10 5 0 8 14
6 31 -2 17 -1 28 3 24 4 -4 7 -12 7 -17 0 -6 6 -13 14 -16 10 -3 12 0 8 12 -4
10 -7 21 -7 25 0 11 -28 9 -40 -3z m10 -12 c0 -8 -19 -13 -24 -6 -3 5 1 9 9 9
8 0 15 -2 15 -3z"/>
<path d="M970 2977 c-8 -7 -17 -21 -18 -32 -4 -22 -3 -21 21 18 19 30 19 32
-3 14z"/>
<path d="M1836 2958 c3 -4 0 -8 -7 -8 -7 0 -9 -3 -6 -6 4 -4 13 -2 20 4 8 7
17 9 20 5 4 -3 7 -1 7 5 0 6 -9 10 -19 9 -11 0 -17 -5 -15 -9z"/>
<path d="M3576 2953 c-6 -14 -5 -15 5 -6 7 7 10 15 7 18 -3 3 -9 -2 -12 -12z"/>
<path d="M5520 2941 c0 -6 4 -13 10 -16 6 -3 7 1 4 9 -7 18 -14 21 -14 7z"/>
<path d="M966 2923 c-6 -14 -5 -15 5 -6 7 7 10 15 7 18 -3 3 -9 -2 -12 -12z"/>
<path d="M1230 2925 c0 -8 4 -15 8 -15 5 0 9 7 9 15 0 8 -4 15 -9 15 -4 0 -8
-7 -8 -15z"/>
<path d="M1310 2925 c0 -8 4 -15 8 -15 5 0 9 7 9 15 0 8 -4 15 -9 15 -4 0 -8
-7 -8 -15z"/>
<path d="M1396 2925 c-3 -8 -1 -15 4 -15 6 0 10 7 10 15 0 8 -2 15 -4 15 -2 0
-6 -7 -10 -15z"/>
<path d="M1452 2931 c-11 -7 -11 -9 0 -14 9 -3 15 1 15 9 0 8 -1 14 -1 14 -1
0 -7 -4 -14 -9z"/>
<path d="M3596 2927 c3 -10 9 -15 12 -12 3 3 0 11 -7 18 -10 9 -11 8 -5 -6z"/>
<path d="M710 2920 c0 -5 5 -10 11 -10 5 0 7 5 4 10 -3 6 -8 10 -11 10 -2 0
-4 -4 -4 -10z"/>
<path d="M925 2920 c3 -5 8 -10 11 -10 2 0 4 5 4 10 0 6 -5 10 -11 10 -5 0 -7
-4 -4 -10z"/>
<path d="M1616 2922 c-2 -4 4 -8 14 -8 10 0 16 4 14 8 -3 4 -9 8 -14 8 -5 0
-11 -4 -14 -8z"/>
<path d="M3570 2920 c0 -5 5 -10 11 -10 5 0 7 5 4 10 -3 6 -8 10 -11 10 -2 0
-4 -4 -4 -10z"/>
<path d="M907 2899 c7 -7 15 -10 18 -7 3 3 -2 9 -12 12 -14 6 -15 5 -6 -5z"/>
<path d="M1055 2900 c3 -5 8 -10 11 -10 2 0 4 5 4 10 0 6 -5 10 -11 10 -5 0
-7 -4 -4 -10z"/>
<path d="M1490 2899 c0 -5 5 -7 10 -4 6 3 10 8 10 11 0 2 -4 4 -10 4 -5 0 -10
-5 -10 -11z"/>
<path d="M3614 2899 c-4 -8 -3 -9 4 -5 8 5 12 0 12 -13 0 -25 12 -33 30 -19
12 8 12 9 -2 4 -13 -4 -18 0 -18 14 0 23 -16 35 -26 19z"/>
<path d="M3653 2895 c0 -8 4 -12 9 -9 5 3 6 10 3 15 -9 13 -12 11 -12 -6z"/>
<path d="M5650 2901 c0 -6 4 -13 10 -16 6 -3 7 1 4 9 -7 18 -14 21 -14 7z"/>
<path d="M836 2887 c3 -10 9 -15 12 -12 3 3 0 11 -7 18 -10 9 -11 8 -5 -6z"/>
<path d="M1296 2873 c-6 -14 -5 -15 5 -6 7 7 10 15 7 18 -3 3 -9 -2 -12 -12z"/>
<path d="M790 2869 c0 -5 -5 -7 -12 -3 -7 4 -8 3 -4 -5 6 -9 11 -9 22 0 17 14
18 19 4 19 -5 0 -10 -5 -10 -11z"/>
<path d="M815 2840 c3 -5 8 -10 11 -10 2 0 4 5 4 10 0 6 -5 10 -11 10 -5 0 -7
-4 -4 -10z"/>
<path d="M3661 2834 c0 -11 3 -14 6 -6 3 7 2 16 -1 19 -3 4 -6 -2 -5 -13z"/>
<path d="M5628 2843 c7 -3 16 -2 19 1 4 3 -2 6 -13 5 -11 0 -14 -3 -6 -6z"/>
<path d="M5652 2810 c-18 -29 -15 -38 4 -12 9 13 14 25 12 27 -2 2 -9 -5 -16
-15z"/>
<path d="M758 2809 c-4 -11 1 -15 17 -15 13 0 21 4 19 8 -3 5 -9 6 -14 3 -4
-3 -10 0 -12 7 -3 8 -6 7 -10 -3z"/>
<path d="M3660 2798 c0 -4 4 -8 9 -8 6 0 12 4 15 8 3 5 -1 9 -9 9 -8 0 -15 -4
-15 -9z"/>
<path d="M5687 2779 c7 -7 15 -10 18 -7 3 3 -2 9 -12 12 -14 6 -15 5 -6 -5z"/>
<path d="M5590 2763 c0 -23 15 -39 24 -25 3 5 -1 18 -9 28 -14 18 -14 18 -15
-3z"/>
<path d="M3609 2757 c16 -16 14 -27 -5 -27 -20 0 -13 -22 8 -26 8 -1 22 3 29
8 11 8 10 9 -3 4 -10 -3 -18 -1 -18 4 0 6 9 10 19 10 11 0 23 5 27 11 4 8 0 9
-15 4 -14 -4 -21 -3 -19 5 2 7 -5 14 -16 15 -14 3 -16 1 -7 -8z"/>
<path d="M3680 2735 c-7 -8 -9 -15 -4 -15 5 0 3 -4 -4 -9 -11 -7 -11 -9 1 -14
10 -4 14 1 13 16 -1 13 4 21 12 19 8 -1 11 2 7 8 -8 13 -10 13 -25 -5z"/>
<path d="M669 2679 c-8 -5 -5 -10 9 -18 27 -14 28 -14 29 7 2 19 -17 24 -38
11z"/>
<path d="M3670 2666 c0 -2 7 -7 16 -10 8 -3 12 -2 9 4 -6 10 -25 14 -25 6z"/>
<path d="M3660 2639 c0 -5 5 -7 10 -4 6 3 10 8 10 11 0 2 -4 4 -10 4 -5 0 -10
-5 -10 -11z"/>
<path d="M750 2620 c0 -5 5 -10 10 -10 6 0 10 5 10 10 0 6 -4 10 -10 10 -5 0
-10 -4 -10 -10z"/>
<path d="M5710 2621 c0 -6 4 -13 10 -16 6 -3 7 1 4 9 -7 18 -14 21 -14 7z"/>
<path d="M5775 2600 c-3 -5 -1 -10 4 -10 6 0 11 5 11 10 0 6 -2 10 -4 10 -3 0
-8 -4 -11 -10z"/>
<path d="M2616 2564 c-4 -11 -2 -15 8 -11 19 8 42 -18 25 -29 -8 -5 -9 -3 -4
6 6 9 4 11 -5 5 -9 -6 -11 -4 -5 6 5 8 0 7 -12 -4 -11 -9 -23 -14 -26 -10 -4
3 -7 0 -7 -8 0 -11 -2 -11 -10 1 -5 8 -10 10 -10 5 0 -6 8 -22 17 -35 10 -14
16 -26 14 -28 -1 -2 0 -6 2 -9 8 -8 2 20 -7 35 -4 7 -5 16 -1 20 4 4 10 1 12
-5 3 -9 10 -9 28 3 14 9 26 11 29 5 4 -5 -3 -13 -15 -16 -17 -6 -19 -9 -8 -16
8 -5 19 -9 24 -9 6 0 4 4 -3 9 -11 7 -11 9 2 14 9 4 16 1 16 -5 0 -6 3 -8 6
-5 4 4 2 13 -4 20 -7 8 -9 17 -5 21 4 4 15 -8 25 -26 12 -21 16 -25 13 -10 -4
13 -2 22 4 22 6 0 11 -5 11 -10 0 -6 8 -5 20 2 11 7 18 18 16 25 -3 7 1 10 9
7 21 -8 14 -26 -17 -46 -33 -21 -34 -24 -9 -24 11 0 17 4 15 8 -3 4 5 12 16
18 24 13 28 -6 8 -30 -11 -12 -10 -12 4 -1 9 7 22 10 29 6 6 -4 4 4 -5 17 -15
23 -15 26 2 41 10 10 22 14 27 10 4 -5 5 -1 3 7 -3 8 -11 14 -18 12 -7 -1 -18
2 -25 8 -9 7 -19 4 -38 -10 -27 -21 -42 -26 -33 -11 4 5 -2 8 -11 6 -10 -2
-18 -4 -18 -5 0 -9 -35 -5 -39 5 -3 8 -14 18 -24 24 -16 8 -21 7 -26 -5z m193
-18 c9 -10 7 -17 -6 -27 -9 -8 -14 -9 -10 -2 4 6 3 14 -3 18 -6 4 -8 11 -5 16
8 12 10 12 24 -5z m-57 -20 c10 5 10 4 1 -6 -10 -11 -15 -11 -28 0 -12 10 -15
10 -15 0 0 -8 -3 -11 -6 -7 -3 3 -3 11 1 17 5 8 10 8 20 0 8 -7 20 -8 27 -4z
m-122 -6 c0 -5 -5 -10 -11 -10 -5 0 -7 5 -4 10 3 6 8 10 11 10 2 0 4 -4 4 -10z"/>
<path d="M2900 2571 c0 -5 5 -13 10 -16 6 -3 10 -2 10 4 0 5 -4 13 -10 16 -5
3 -10 2 -10 -4z"/>
<path d="M3257 2565 c-6 -13 -1 -17 19 -14 4 0 11 -5 15 -13 5 -7 9 -8 9 -2 0
6 -8 19 -19 28 -16 15 -19 15 -24 1z"/>
<path d="M3470 2565 c7 -9 15 -13 17 -11 7 7 -7 26 -19 26 -6 0 -6 -6 2 -15z"/>
<path d="M3007 2550 c-28 -22 -42 -26 -31 -8 5 7 3 8 -5 3 -9 -5 -9 -11 -3
-17 6 -6 8 -17 5 -26 -4 -10 -2 -13 5 -8 7 4 12 15 12 24 0 15 2 15 10 2 6
-10 10 -11 10 -2 0 6 5 12 10 12 16 0 7 -24 -15 -37 -24 -15 -11 -17 16 -3 14
8 19 7 19 -1 0 -7 3 -9 6 -6 4 4 1 13 -5 21 -7 8 -8 17 -3 20 13 8 33 -39 21
-51 -5 -5 -1 -9 10 -9 16 0 18 4 9 19 -11 22 -1 38 11 18 6 -9 11 -10 15 -2 4
6 2 11 -4 11 -6 0 -9 4 -6 8 3 5 -1 9 -9 9 -8 0 -15 -5 -15 -11 0 -5 -6 -1
-14 9 -8 11 -12 23 -10 27 11 17 -16 16 -39 -2z m30 -5 c0 -8 -4 -12 -9 -9 -5
3 -6 10 -3 15 9 13 12 11 12 -6z"/>
<path d="M3526 2562 c-3 -5 1 -9 9 -9 8 0 15 4 15 9 0 4 -4 8 -9 8 -6 0 -12
-4 -15 -8z"/>
<path d="M3640 2560 c-9 -6 -10 -10 -3 -10 6 0 15 5 18 10 8 12 4 12 -15 0z"/>
<path d="M2153 2545 c0 -8 4 -15 9 -15 4 0 8 4 8 9 0 6 -4 12 -8 15 -5 3 -9
-1 -9 -9z"/>
<path d="M3425 2551 c3 -5 2 -16 -1 -25 -5 -13 -9 -12 -26 7 -11 12 -17 16
-13 10 3 -7 4 -13 1 -13 -2 0 -13 -3 -23 -6 -13 -4 -15 -3 -4 4 9 7 10 12 2
16 -6 4 -11 2 -11 -4 0 -6 -5 -8 -12 -4 -9 5 -9 2 1 -9 7 -9 20 -17 28 -17 9
0 11 -5 7 -12 -5 -9 -2 -9 9 1 14 11 20 11 34 0 11 -10 14 -10 9 -1 -4 7 -1
12 8 12 16 0 13 -22 -8 -50 -9 -13 -9 -13 6 -2 10 8 23 10 30 6 10 -6 10 -5 2
7 -6 8 -12 22 -13 32 -3 40 -5 46 -18 51 -8 3 -12 2 -8 -3z"/>
<path d="M2116 2542 c-3 -5 1 -9 9 -9 8 0 12 4 9 9 -3 4 -7 8 -9 8 -2 0 -6 -4
-9 -8z"/>
<path d="M746 2524 c-9 -24 -2 -26 12 -4 7 11 8 20 3 20 -5 0 -12 -7 -15 -16z"/>
<path d="M5748 2523 c7 -3 16 -2 19 1 4 3 -2 6 -13 5 -11 0 -14 -3 -6 -6z"/>
<path d="M2174 2508 c-4 -6 -3 -8 4 -5 13 9 44 -2 37 -13 -3 -5 -1 -11 4 -14
5 -4 8 1 7 10 -4 27 -39 43 -52 22z"/>
<path d="M2553 2509 c3 -9 1 -21 -4 -26 -5 -5 -1 -9 10 -9 16 0 18 4 9 21 -14
26 -23 34 -15 14z"/>
<path d="M3554 2502 c3 -5 1 -12 -6 -14 -6 -2 -12 -12 -14 -22 -1 -10 0 -16 3
-13 2 3 5 9 5 14 1 4 8 13 16 19 12 9 12 13 2 19 -8 5 -11 4 -6 -3z"/>
<path d="M773 2481 c0 -11 5 -18 9 -15 4 3 5 11 1 19 -7 21 -12 19 -10 -4z"/>
<path d="M3351 2484 c0 -11 3 -14 6 -6 3 7 2 16 -1 19 -3 4 -6 -2 -5 -13z"/>
<path d="M2356 2478 c3 -4 0 -8 -7 -8 -7 0 -9 -3 -6 -6 4 -4 13 -2 20 4 8 7
17 9 20 5 4 -3 7 -1 7 5 0 6 -9 10 -19 9 -11 0 -17 -5 -15 -9z"/>
<path d="M2450 2478 c0 -6 3 -8 7 -5 3 4 11 2 18 -3 8 -7 12 -6 12 3 0 7 -9
14 -19 14 -10 1 -18 -3 -18 -9z"/>
<path d="M3280 2480 c8 -5 20 -10 25 -10 6 0 3 5 -5 10 -8 5 -19 10 -25 10 -5
0 -3 -5 5 -10z"/>
<path d="M3382 2477 c-8 -10 -6 -13 7 -13 10 0 18 6 18 13 0 7 -4 13 -7 13 -4
0 -12 -6 -18 -13z"/>
<path d="M3594 2482 c4 -3 14 -7 22 -8 9 -1 13 0 10 4 -4 3 -14 7 -22 8 -9 1
-13 0 -10 -4z"/>
<path d="M5800 2475 c-7 -8 -17 -12 -24 -8 -6 3 -7 2 -3 -2 4 -5 15 -10 23
-11 9 -1 13 0 10 3 -3 4 -1 12 5 20 6 7 9 13 6 13 -2 0 -10 -7 -17 -15z"/>
<path d="M2510 2470 c-9 -6 -10 -10 -3 -10 6 0 15 5 18 10 8 12 4 12 -15 0z"/>
<path d="M2620 2466 c0 -2 8 -10 18 -17 15 -13 16 -12 3 4 -13 16 -21 21 -21
13z"/>
<path d="M2679 2453 c-13 -16 -12 -17 4 -4 16 13 21 21 13 21 -2 0 -10 -8 -17
-17z"/>
<path d="M2860 2460 c-9 -6 -10 -10 -3 -10 6 0 15 5 18 10 8 12 4 12 -15 0z"/>
<path d="M3007 2459 c7 -7 15 -10 18 -7 3 3 -2 9 -12 12 -14 6 -15 5 -6 -5z"/>
<path d="M3180 2460 c-9 -6 -10 -10 -3 -10 6 0 15 5 18 10 8 12 4 12 -15 0z"/>
<path d="M3260 2466 c0 -2 8 -10 18 -17 15 -13 16 -12 3 4 -13 16 -21 21 -21
13z"/>
<path d="M3319 2453 c-13 -16 -12 -17 4 -4 16 13 21 21 13 21 -2 0 -10 -8 -17
-17z"/>
<path d="M2295 2451 c-3 -5 -2 -12 3 -15 5 -3 9 1 9 9 0 17 -3 19 -12 6z"/>
<path d="M2453 2445 c0 -8 4 -12 9 -9 5 3 6 10 3 15 -9 13 -12 11 -12 -6z"/>
<path d="M2915 2440 c3 -5 8 -10 11 -10 2 0 4 5 4 10 0 6 -5 10 -11 10 -5 0
-7 -4 -4 -10z"/>
<path d="M669 2359 c-8 -5 -5 -10 9 -18 27 -14 28 -14 29 7 2 19 -17 24 -38
11z"/>
<path d="M5814 2342 c4 -3 14 -7 22 -8 9 -1 13 0 10 4 -4 3 -14 7 -22 8 -9 1
-13 0 -10 -4z"/>
<path d="M750 2300 c0 -5 5 -10 10 -10 6 0 10 5 10 10 0 6 -4 10 -10 10 -5 0
-10 -4 -10 -10z"/>
<path d="M4870 2279 c6 -11 8 -24 5 -29 -3 -5 -1 -18 4 -27 6 -11 11 -13 11
-5 0 7 5 10 10 7 6 -4 8 -10 5 -15 -10 -15 20 -5 55 20 24 17 32 20 28 8 -4
-9 0 -24 8 -35 14 -17 15 -17 6 2 -7 15 -6 24 5 34 13 12 14 11 9 -7 -9 -28 9
-37 27 -12 7 11 17 17 22 12 5 -4 5 -1 1 6 -4 6 -2 12 4 12 6 0 8 5 4 11 -3 6
-9 7 -13 3 -7 -11 -82 -12 -98 -1 -6 4 -13 1 -16 -5 -3 -8 -9 -2 -15 13 -8 20
-18 26 -41 27 -28 1 -30 -1 -21 -19z m45 -9 c-6 -9 23 -24 45 -22 8 1 5 -3 -7
-10 -13 -6 -23 -15 -23 -21 0 -5 -7 -4 -15 3 -9 7 -13 20 -10 29 4 12 2 12 -9
-2 -13 -17 -14 -16 -12 6 1 17 6 23 15 19 10 -4 12 -1 6 8 -5 9 -4 11 4 6 6
-4 9 -11 6 -16z m125 -41 c-7 -11 -14 -19 -16 -16 -7 7 7 37 17 37 6 0 5 -9
-1 -21z"/>
<path d="M4915 2240 c3 -5 8 -10 11 -10 2 0 4 5 4 10 0 6 -5 10 -11 10 -5 0
-7 -4 -4 -10z"/>
<path d="M4625 2262 c-5 -12 -9 -13 -12 -4 -8 22 -20 13 -19 -15 1 -16 -3 -34
-8 -40 -4 -7 -6 -13 -2 -13 3 0 15 15 26 33 11 17 20 27 20 22 0 -6 9 -16 21
-23 12 -8 19 -9 15 -4 -3 5 20 9 54 8 55 -1 59 -3 56 -22 -4 -18 0 -21 17 -16
18 4 18 6 4 11 -19 7 -7 36 15 36 17 1 29 -17 20 -30 -4 -6 1 -2 11 8 9 11 17
23 17 28 0 15 -21 21 -34 10 -7 -6 -16 -8 -20 -4 -4 4 -11 2 -15 -6 -6 -10
-10 -9 -14 4 -4 9 -3 14 2 11 5 -3 15 2 22 11 12 15 12 16 -6 9 -11 -5 -27 -9
-35 -10 -8 -1 -26 -8 -38 -15 -24 -13 -37 -9 -37 12 0 19 -52 18 -60 -1z m34
-4 c4 7 12 3 20 -11 13 -20 13 -21 -2 -8 -12 9 -17 10 -17 2 0 -8 -4 -8 -14 1
-8 7 -11 17 -8 23 3 5 8 3 10 -4 3 -9 7 -10 11 -3z m111 -19 c0 -5 -4 -9 -10
-9 -5 0 -10 5 -10 12 0 9 -3 9 -12 0 -7 -7 -16 -12 -22 -12 -5 0 -1 6 9 14 19
14 45 11 45 -5z m80 1 c0 -5 -2 -10 -4 -10 -3 0 -8 5 -11 10 -3 6 -1 10 4 10
6 0 11 -4 11 -10z"/>
<path d="M5091 2261 c-6 -11 -8 -27 -5 -35 4 -12 2 -15 -9 -10 -8 3 -18 1 -22
-5 -4 -7 0 -8 11 -4 13 5 15 3 9 -8 -4 -8 -5 -11 0 -7 4 4 15 2 24 -5 14 -10
14 -10 3 5 -9 11 -10 18 -2 23 6 4 8 16 4 27 -4 14 -2 18 5 14 6 -4 11 -3 11
3 0 20 -19 21 -29 2z"/>
<path d="M5853 2252 c-10 -7 -10 -12 0 -25 11 -16 12 -15 12 8 0 14 0 25 0 25
0 0 -6 -4 -12 -8z"/>
<path d="M5875 2241 c-3 -5 -2 -12 3 -15 5 -3 9 1 9 9 0 17 -3 19 -12 6z"/>
<path d="M5820 2215 c-7 -8 -17 -12 -24 -8 -6 4 -5 -1 3 -10 7 -9 11 -17 7
-17 -8 0 22 -60 41 -82 10 -11 11 -18 4 -23 -14 -8 -14 -25 0 -25 5 0 8 4 4 9
-3 5 -1 12 5 16 6 4 8 10 5 15 -3 5 3 14 12 20 15 10 15 11 1 6 -13 -4 -16 2
-14 29 3 27 -1 36 -16 41 -13 4 -18 12 -15 25 6 23 3 24 -13 4z m31 -50 c3
-25 5 -65 2 -65 -5 0 -35 62 -38 81 -3 16 -1 17 16 6 10 -6 20 -16 20 -22z"/>
<path d="M5831 2160 c14 -31 19 -36 19 -24 0 6 -7 19 -16 30 -14 18 -14 18 -3
-6z"/>
<path d="M746 2204 c-9 -24 -2 -26 12 -4 7 11 8 20 3 20 -5 0 -12 -7 -15 -16z"/>
<path d="M4621 2213 c-1 -17 16 -25 25 -12 4 7 3 9 -4 5 -5 -3 -13 0 -15 6 -4
9 -6 10 -6 1z"/>
<path d="M4860 2211 c0 -10 19 -25 25 -20 1 2 -3 10 -11 17 -8 7 -14 8 -14 3z"/>
<path d="M4957 2213 c-4 -3 -7 -11 -7 -16 0 -6 3 -7 7 -4 3 4 13 1 22 -6 14
-11 15 -10 1 8 -8 11 -15 21 -16 23 0 1 -4 -1 -7 -5z"/>
<path d="M4673 2200 c-31 -12 -29 -22 1 -10 13 5 27 6 30 3 3 -4 6 -1 6 5 0
14 -7 14 -37 2z"/>
<path d="M4730 2206 c0 -2 7 -7 16 -10 8 -3 12 -2 9 4 -6 10 -25 14 -25 6z"/>
<path d="M4536 2191 c-4 -5 3 -7 14 -4 23 6 26 13 6 13 -8 0 -17 -4 -20 -9z"/>
<path d="M5146 2185 c-11 -8 -15 -15 -9 -15 6 0 16 7 23 15 16 19 11 19 -14 0z"/>
<path d="M5861 2196 c2 -2 15 -9 29 -15 24 -11 24 -11 6 3 -16 13 -49 24 -35
12z"/>
<path d="M4475 2180 c-3 -5 -1 -10 4 -10 6 0 11 5 11 10 0 6 -2 10 -4 10 -3 0
-8 -4 -11 -10z"/>
<path d="M4595 2180 c-3 -5 -1 -10 4 -10 6 0 11 5 11 10 0 6 -2 10 -4 10 -3 0
-8 -4 -11 -10z"/>
<path d="M4715 2180 c-3 -5 -1 -10 4 -10 6 0 11 5 11 10 0 6 -2 10 -4 10 -3 0
-8 -4 -11 -10z"/>
<path d="M4835 2180 c-3 -5 -1 -10 4 -10 6 0 11 5 11 10 0 6 -2 10 -4 10 -3 0
-8 -4 -11 -10z"/>
<path d="M4910 2176 c7 -7 13 -7 20 0 6 6 3 10 -10 10 -13 0 -16 -4 -10 -10z"/>
<path d="M5030 2178 c0 -4 4 -8 9 -8 6 0 12 4 15 8 3 5 -1 9 -9 9 -8 0 -15 -4
-15 -9z"/>
<path d="M4230 2162 c0 -7 -4 -11 -9 -8 -5 3 -12 -1 -15 -10 -3 -8 -10 -12
-16 -9 -5 3 -10 2 -10 -4 0 -17 18 -21 24 -5 3 8 9 13 14 10 15 -9 31 9 22 24
-7 11 -10 12 -10 2z"/>
<path d="M750 2140 c-13 -8 -12 -10 3 -10 9 0 17 5 17 10 0 12 -1 12 -20 0z"/>
<path d="M4286 2123 c-8 -20 9 -40 19 -22 6 8 4 10 -5 4 -9 -5 -10 -2 -5 14 8
25 0 29 -9 4z"/>
<path d="M799 2113 c-13 -16 -12 -17 4 -4 9 7 17 15 17 17 0 8 -8 3 -21 -13z"/>
<path d="M5910 2092 c6 -13 14 -21 18 -18 3 4 -2 14 -12 24 -18 16 -18 16 -6
-6z"/>
<path d="M790 2076 c7 -7 13 -7 20 0 6 6 3 10 -10 10 -13 0 -16 -4 -10 -10z"/>
<path d="M4193 2078 c3 -10 1 -20 -5 -24 -7 -5 -6 -11 6 -19 14 -11 15 -13 1
-19 -8 -3 -22 -3 -30 0 -9 4 -15 0 -15 -10 0 -9 5 -16 12 -16 6 0 3 -10 -8
-22 -10 -13 -12 -17 -4 -11 8 6 18 12 22 12 25 4 38 16 38 33 0 13 4 17 13 12
8 -6 8 -3 -1 9 -8 9 -11 20 -9 24 3 5 -2 17 -10 28 -12 16 -14 16 -10 3z m-7
-96 c-18 -16 -18 -16 -6 6 6 13 14 21 18 18 3 -4 -2 -14 -12 -24z"/>
<path d="M4260 2080 c-12 -7 -10 -9 7 -7 12 0 19 5 17 9 -6 10 -6 10 -24 -2z"/>
<path d="M5936 2047 c3 -10 9 -15 12 -12 3 3 0 11 -7 18 -10 9 -11 8 -5 -6z"/>
<path d="M790 2038 c0 -4 4 -8 9 -8 6 0 12 4 15 8 3 5 -1 9 -9 9 -8 0 -15 -4
-15 -9z"/>
<path d="M710 2002 c0 -7 0 -14 0 -17 0 -3 -6 -18 -14 -33 -14 -29 -15 -59 -2
-80 5 -9 1 -15 -13 -19 -16 -4 -19 -9 -11 -18 7 -9 6 -16 -5 -25 -14 -12 -14
-15 1 -31 13 -14 20 -16 40 -7 18 9 21 14 12 20 -10 6 -7 13 11 28 13 11 18
20 12 20 -7 0 -9 5 -6 10 4 6 12 7 19 3 7 -4 3 0 -9 9 -53 44 -56 49 -46 62 6
7 7 17 3 21 -4 5 -2 5 5 1 6 -3 14 -2 17 2 3 5 17 8 31 7 14 -2 23 1 20 5 -3
5 -13 6 -23 3 -15 -6 -16 -5 -2 12 12 15 12 17 1 10 -9 -5 -19 -2 -28 10 -7
11 -13 13 -13 7z m13 -43 c-9 -9 -12 -7 -10 9 1 14 5 18 11 12 7 -7 6 -14 -1
-21z m4 -110 c-2 -9 -9 -24 -16 -33 -7 -8 -10 -19 -7 -25 9 -15 -21 -21 -33
-7 -8 10 -7 17 4 26 8 7 13 16 10 20 -3 4 2 13 10 20 12 10 13 15 3 28 -12 13
-10 14 9 1 12 -7 21 -21 20 -30z"/>
<path d="M700 1845 c-7 -8 -9 -15 -5 -15 5 0 0 -9 -9 -19 -14 -15 -15 -21 -4
-27 7 -4 10 -3 5 1 -4 5 1 17 10 27 9 11 18 25 19 33 3 19 0 19 -16 0z"/>
<path d="M730 1999 c0 -5 5 -7 10 -4 6 3 10 8 10 11 0 2 -4 4 -10 4 -5 0 -10
-5 -10 -11z"/>
<path d="M4230 1988 c-10 -22 -10 -22 4 -4 8 10 20 15 27 10 8 -4 10 -3 5 4
-11 18 -24 14 -36 -10z"/>
<path d="M715 1928 c-15 -9 -10 -38 7 -38 5 0 6 5 3 10 -3 6 -2 10 2 10 5 0
17 6 27 13 16 12 16 13 -3 13 -12 0 -28 -4 -36 -8z"/>
<path d="M4201 1924 c0 -11 3 -14 6 -6 3 7 2 16 -1 19 -3 4 -6 -2 -5 -13z"/>
<path d="M745 1899 c-4 -6 -5 -12 -2 -15 2 -3 7 2 10 11 7 17 1 20 -8 4z"/>
<path d="M770 1885 c0 -8 4 -15 10 -15 5 0 7 7 4 15 -4 8 -8 15 -10 15 -2 0
-4 -7 -4 -15z"/>
<path d="M4190 1890 c-9 -6 -10 -10 -3 -10 6 0 15 5 18 10 8 12 4 12 -15 0z"/>
<path d="M5965 1880 c-3 -6 1 -7 9 -4 18 7 21 14 7 14 -6 0 -13 -4 -16 -10z"/>
<path d="M5915 1869 c-4 -6 -5 -12 -2 -15 2 -3 7 2 10 11 7 17 1 20 -8 4z"/>
<path d="M4175 1859 c-4 -6 -4 -13 -1 -16 3 -4 6 -1 6 6 0 7 5 9 12 5 7 -4 8
-3 4 4 -9 15 -13 15 -21 1z"/>
<path d="M190 1819 c0 -5 5 -7 10 -4 6 3 10 8 10 11 0 2 -4 4 -10 4 -5 0 -10
-5 -10 -11z"/>
<path d="M3536 1818 c3 -5 10 -6 15 -3 13 9 11 12 -6 12 -8 0 -12 -4 -9 -9z"/>
<path d="M5450 1817 c0 -4 -4 -6 -8 -3 -12 7 -38 -12 -29 -21 5 -4 11 -3 15 2
4 6 16 12 26 13 18 3 18 2 5 -14 -8 -11 -9 -15 -1 -10 7 4 12 2 12 -4 0 -6 5
-8 12 -4 8 5 9 2 5 -9 -3 -10 -2 -17 3 -17 6 0 10 6 10 13 1 6 7 1 15 -13 8
-14 14 -19 15 -12 0 7 5 10 10 7 6 -4 8 -10 5 -15 -3 -4 4 -6 15 -3 11 3 20
10 20 15 0 5 5 6 12 2 8 -5 6 -11 -7 -20 -16 -12 -16 -13 3 -11 11 0 18 5 15
11 -4 5 0 7 9 4 10 -4 14 0 13 15 -1 12 3 28 9 36 8 11 8 13 -1 8 -6 -4 -22
-3 -35 2 -15 5 -31 5 -40 0 -12 -7 -20 -4 -27 8 -5 10 -13 14 -17 10 -5 -5 -2
-12 5 -16 8 -5 9 -11 3 -15 -5 -3 -15 7 -22 23 -8 19 -19 29 -31 28 -10 -1
-19 -5 -19 -10z m40 -17 c8 -15 8 -18 -3 -14 -8 3 -14 11 -14 19 0 20 4 19 17
-5z m108 -31 c-10 -7 -8 -9 5 -9 10 0 15 -5 12 -10 -5 -8 -11 -8 -19 -1 -9 7
-16 7 -25 -2 -10 -9 -15 -8 -27 7 -9 13 -14 15 -14 6 0 -7 -3 -11 -6 -7 -13
13 6 22 46 23 26 1 36 -2 28 -7z"/>
<path d="M5556 1758 c3 -5 10 -6 15 -3 13 9 11 12 -6 12 -8 0 -12 -4 -9 -9z"/>
<path d="M735 1811 c-3 -5 -2 -12 3 -15 5 -3 9 1 9 9 0 17 -3 19 -12 6z"/>
<path d="M766 1798 c3 -5 10 -6 15 -3 13 9 11 12 -6 12 -8 0 -12 -4 -9 -9z"/>
<path d="M3666 1799 c2 -4 12 -9 23 -12 13 -3 18 -1 14 8 -2 8 -13 13 -23 12
-10 -1 -17 -4 -14 -8z"/>
<path d="M198 1768 c2 -10 6 -18 7 -18 1 0 5 8 7 18 3 11 0 19 -7 19 -7 0 -10
-8 -7 -19z"/>
<path d="M3535 1780 c-2 -3 9 -6 25 -6 17 0 27 2 25 5 -8 7 -45 9 -50 1z"/>
<path d="M4170 1779 c0 -5 5 -7 10 -4 6 3 10 8 10 11 0 2 -4 4 -10 4 -5 0 -10
-5 -10 -11z"/>
<path d="M5872 1780 c3 -17 -38 -21 -59 -7 -9 6 -15 3 -19 -8 -5 -13 -9 -14
-15 -3 -5 7 -24 13 -43 13 -28 1 -33 -2 -24 -12 6 -8 13 -11 16 -8 3 3 11 0
18 -5 6 -6 17 -9 24 -8 7 2 15 -3 18 -11 3 -8 0 -11 -7 -7 -7 5 -9 1 -4 -10 5
-15 7 -14 17 3 6 11 17 18 24 16 6 -3 9 -10 5 -16 -4 -8 -1 -7 9 1 13 10 17
10 21 0 2 -7 8 -9 13 -5 10 9 -22 31 -45 32 -8 0 -16 7 -18 15 -4 12 -3 13 5
1 5 -7 15 -10 21 -6 7 4 23 -1 38 -10 14 -9 23 -12 19 -7 -3 6 0 12 6 15 10 3
8 10 -5 23 -14 14 -18 15 -15 4z m-102 -22 c0 -4 -4 -8 -9 -8 -6 0 -12 4 -15
8 -3 5 1 9 9 9 8 0 15 -4 15 -9z"/>
<path d="M5975 1780 c-3 -6 1 -7 9 -4 18 7 21 14 7 14 -6 0 -13 -4 -16 -10z"/>
<path d="M731 1771 c-8 -5 -9 -11 -3 -15 5 -3 12 1 16 9 6 17 6 18 -13 6z"/>
<path d="M5433 1765 c0 -7 6 -11 14 -8 9 4 11 0 7 -11 -3 -9 -4 -16 -1 -16 15
0 14 31 -2 39 -13 7 -18 6 -18 -4z"/>
<path d="M5940 1762 c0 -4 9 -13 20 -20 19 -12 20 -11 8 8 -13 20 -28 27 -28
12z"/>
<path d="M240 1746 c0 -2 7 -7 16 -10 8 -3 12 -2 9 4 -6 10 -25 14 -25 6z"/>
<path d="M3595 1730 c-4 -6 -11 -7 -17 -4 -7 4 -8 2 -4 -5 6 -9 11 -9 22 0 14
11 18 19 10 19 -3 0 -8 -5 -11 -10z"/>
<path d="M3633 1727 c0 -8 6 -14 13 -14 7 0 10 6 7 14 -3 7 -8 13 -12 13 -4 0
-8 -6 -8 -13z"/>
<path d="M5486 1731 c-18 -7 -18 -8 -2 -14 10 -4 14 -12 10 -19 -4 -7 -3 -10
1 -5 6 5 17 51 11 46 -1 0 -10 -4 -20 -8z"/>
<path d="M5900 1731 c0 -6 4 -13 10 -16 6 -3 7 1 4 9 -7 18 -14 21 -14 7z"/>
<path d="M249 1717 c6 -8 7 -18 3 -22 -4 -5 -1 -5 6 -1 10 6 10 11 1 22 -6 8
-14 14 -16 14 -3 0 0 -6 6 -13z"/>
<path d="M680 1726 c0 -2 7 -7 16 -10 8 -3 12 -2 9 4 -6 10 -25 14 -25 6z"/>
<path d="M5935 1720 c-4 -6 -1 -9 7 -8 7 2 12 -3 10 -10 -1 -8 2 -11 8 -7 8 5
7 11 -1 21 -14 17 -16 17 -24 4z"/>
<path d="M3750 1711 c0 -5 7 -11 14 -14 10 -4 13 -1 9 9 -6 15 -23 19 -23 5z"/>
<path d="M3950 1710 c-9 -6 -10 -10 -3 -10 6 0 15 5 18 10 8 12 4 12 -15 0z"/>
<path d="M398 1703 c7 -3 16 -2 19 1 4 3 -2 6 -13 5 -11 0 -14 -3 -6 -6z"/>
<path d="M450 1700 c0 -5 5 -10 11 -10 5 0 7 5 4 10 -3 6 -8 10 -11 10 -2 0
-4 -4 -4 -10z"/>
<path d="M495 1701 c-3 -5 -2 -12 3 -15 5 -3 9 1 9 9 0 17 -3 19 -12 6z"/>
<path d="M548 1703 c7 -3 16 -2 19 1 4 3 -2 6 -13 5 -11 0 -14 -3 -6 -6z"/>
<path d="M636 1698 c3 -5 10 -6 15 -3 13 9 11 12 -6 12 -8 0 -12 -4 -9 -9z"/>
<path d="M4020 1700 c-9 -6 -10 -10 -3 -10 6 0 15 5 18 10 8 12 4 12 -15 0z"/>
<path d="M5540 1700 c-9 -6 -10 -10 -3 -10 6 0 15 5 18 10 8 12 4 12 -15 0z"/>
<path d="M5628 1703 c7 -3 16 -2 19 1 4 3 -2 6 -13 5 -11 0 -14 -3 -6 -6z"/>
<path d="M5748 1703 c7 -3 16 -2 19 1 4 3 -2 6 -13 5 -11 0 -14 -3 -6 -6z"/>
<path d="M564 1678 l-19 -23 23 19 c12 11 22 21 22 23 0 8 -8 2 -26 -19z"/>
<path d="M4053 1685 c0 -8 4 -12 9 -9 5 3 6 10 3 15 -9 13 -12 11 -12 -6z"/>
<path d="M307 1679 c7 -7 15 -10 18 -7 3 3 -2 9 -12 12 -14 6 -15 5 -6 -5z"/>
<path d="M3815 1681 c3 -3 17 -6 31 -7 13 0 22 2 19 5 -3 3 -17 6 -31 7 -13 0
-22 -2 -19 -5z"/>
<path d="M5754 1682 c4 -3 14 -7 22 -8 9 -1 13 0 10 4 -4 3 -14 7 -22 8 -9 1
-13 0 -10 -4z"/>
<path d="M430 1660 c0 -5 5 -10 11 -10 5 0 7 5 4 10 -3 6 -8 10 -11 10 -2 0
-4 -4 -4 -10z"/>
<path d="M5633 1655 c0 -8 4 -12 9 -9 5 3 6 10 3 15 -9 13 -12 11 -12 -6z"/>
</g>
</svg>
